<?xml version="1.0" encoding="UTF-8"?>
<svg id="Calque_1" data-name="Calque 1" xmlns="http://www.w3.org/2000/svg" xmlns:xlink="http://www.w3.org/1999/xlink" viewBox="0 0 1395.42 566.93">
  <defs>
    <style>
      .cls-1 {
        fill: #fff;
      }

      .cls-2 {
        fill: #f07f4e;
      }

      .cls-3 {
        fill: #dadada;
      }

      .cls-4 {
        fill: #0868ae;
      }

      .cls-5 {
        fill: #e94a34;
      }

      .cls-6 {
        clip-path: url(#clippath);
      }

      .cls-7 {
        fill: none;
      }

      .cls-8 {
        fill: #1b9690;
      }

      .cls-9 {
        fill: #1d1d1b;
      }
    </style>
    <clipPath id="clippath">
      <circle class="cls-7" cx="283.46" cy="283.46" r="168.45"/>
    </clipPath>
  </defs>
  <g>
    <circle class="cls-5" cx="283.46" cy="283.46" r="168.45"/>
    <circle class="cls-1" cx="222.29" cy="195.22" r="29.65"/>
    <g class="cls-6">
      <g>
        <rect class="cls-2" x="494.92" y="168.56" width="20.38" height="20.38"/>
        <path class="cls-2" d="M517.29,176.08c0,14.22-11.53,25.76-25.76,25.76h-205.39v-8.43h186.34c-4.17-4.57-6.71-10.66-6.71-17.33s2.55-12.77,6.72-17.34h-186.36v-8.42h205.39c14.22,0,25.76,11.52,25.76,25.76Z"/>
        <path class="cls-3" d="M508.87,176.08c0,9.57-7.76,17.33-17.33,17.33h-205.4c9.57,0,9.06-7.76,9.06-17.33s.51-17.33-9.06-17.33h205.4c9.57,0,17.33,7.76,17.33,17.33Z"/>
        <path class="cls-4" d="M542.79,275.51c0,40.69-32.99,73.67-73.68,73.67h-157.36v-7.54h157.37c36.51,0,66.12-29.61,66.12-66.14s-29.61-66.12-66.12-66.12h-157.37v-7.54h157.36c40.69,0,73.68,32.98,73.68,73.67Z"/>
        <rect class="cls-4" x="399.37" y="201.84" width="3.96" height="7.51"/>
        <path class="cls-8" d="M284.67,349.18h190.43v9.2h-167.66c8.81,7.35,14.44,18.4,14.44,30.77s-5.63,23.42-14.42,30.76h-.01s167.65,.01,167.65,.01v9.2h-190.43v-.11c-.91,.08-1.83,.11-2.76,.11-22.07,0-39.96-17.89-39.96-39.97s17.89-39.97,39.96-39.97c.93,0,1.85,.03,2.76,.1v-.1Z"/>
        <rect class="cls-8" x="471.46" y="349.18" width="39.6" height="9.2"/>
        <rect class="cls-8" x="471.46" y="419.92" width="39.6" height="9.2"/>
        <path class="cls-5" d="M448.69,451.92c0,12.1-9.43,22-21.33,22.76-.49,.03-.98,.05-1.48,.05-6.09,0-11.61-2.38-15.7-6.27-4.38-4.15-7.11-10.03-7.11-16.54s2.73-12.39,7.11-16.54H168.28v-6.27H426.08c12.5,.1,22.62,10.27,22.62,22.81Z"/>
        <path class="cls-9" d="M425.88,474.73H169.56v-6.27h240.62c4.09,3.89,9.61,6.27,15.7,6.27Z"/>
        <path class="cls-9" d="M427.37,441.58v.05h-1.48c.5,0,.99-.02,1.48-.05Z"/>
        <path class="cls-3" d="M475.11,358.39v61.52h-190.43c-16.99,0-30.76-13.77-30.76-30.76s13.77-30.76,30.76-30.76h190.43Z"/>
        <path class="cls-3" d="M511.06,419.91h-39.6v-61.52h39.6c-16.98,0-21.73,13.77-21.73,30.76s4.75,30.76,21.73,30.76Z"/>
        <path class="cls-3" d="M442.62,451.92c0,9.14-7.42,16.55-16.55,16.55-.34,0-.69-.01-1.02-.04H169.3c8.66-.52,9.37-7.71,9.37-16.51s-1.25-16.55-10.39-16.55H426.08c9.13,0,16.55,7.41,16.55,16.55Z"/>
        <path class="cls-3" d="M535.25,275.5c0,36.53-29.61,66.14-66.12,66.14h-157.37s14.8-41.96,14.8-66.14-14.8-66.12-14.8-66.12h157.37c36.51,0,66.12,29.61,66.12,66.12Z"/>
      </g>
    </g>
    <g>
      <path class="cls-1" d="M219.98,430.87c-1.55,0-2.97-.59-4-1.65-1.05-1.08-1.6-2.55-1.55-4.15,.29-9.76,9.34-26.09,15.33-36.9,1.35-2.43,2.51-4.53,3.35-6.16,.54-1.04,.29-2.31-.59-3.1-32.21-28.7-45.59-47.76-47.74-67.99-2.36-22.16,8.98-46.1,29.36-79.97,.1-.17,.21-.33,.33-.49,12.57-16.57,36.11-48.41,52.46-75.38,1.29-2.12,1.41-5.08,.33-8.1-.83-2.33-.89-2.75-.15-4.87,.72-2.06,2.68-3.44,4.87-3.44,.95,0,1.89,.26,2.72,.76,2.26,1.36,3.96,2.03,5.22,2.03s1.98-.64,3.29-1.88c1.54-1.46,3.46-3.27,7.1-3.72h.09s.17-.02,.17-.02c1.93,0,12.44,4.47,13.73,6.11,1.19,1.51,.93,2.83,.67,3.49-.85,2.17-4.1,3.67-9.92,4.57-23.98,3.74-48.82,92.02-48.51,99.74,.26,6.45,5.6,19.68,6.5,21,3.2,3.16,7.14,4.64,12.39,4.63,4.87,0,10.16-1.24,15.77-2.56,5.9-1.39,11.99-2.82,17.91-2.82,2.74,0,5.2,.3,7.54,.92,8.32,2.2,11.34,25.36,10.06,31.99-.78,4.07-1.6,7.58-2.38,10.97-1.55,6.69-2.89,12.48-3.19,19.46-.05,1.23,.79,2.32,2,2.6l12.9,2.92c2.64,.6,4.47,2.88,4.36,5.43-.2,4.45-5.33,5.76-9.08,6.71-1.61,.41-3.26,.62-4.92,.62-3.25,0-6.48-.81-9.34-2.34l-8.62-4.63c-1.88-1.01-3.03-3.04-2.94-5.18,.12-2.63,.32-5.78,.54-9.1,.25-3.92,.54-8.37,.74-12.8,.03-.71-.22-1.39-.71-1.9-.49-.52-1.18-.81-1.88-.81-.3,0-.6,.05-.89,.16-18.12,6.6-31.66,6.93-40.61,7.15-5.49,.13-9.46,.23-10.5,1.85-1.96,3.09,2.76,13.87,13.11,37.5,1.23,2.81,2.54,5.81,3.94,9.01,.75,1.72,.64,3.68-.29,5.23-2.48,4.13-8.69,12.21-14.7,20.03-5.04,6.56-10.24,13.34-12.79,17.2-.62,.95-.55,2.21,.19,3.07,3.66,4.27,4.87,7.24,3.94,9.65-1.35,3.49-6.68,4.13-13.42,4.95l-1.42,.17c-.26,.03-.52,.05-.77,.05Z"/>
      <path class="cls-5" d="M290.58,137.32c1.58,0,11.64,4.38,12.55,5.54,1.93,2.44-1.06,4.53-8.3,5.65-25.76,4.02-50.06,94.37-49.78,101.29,.28,6.91,5.97,21.04,6.89,21.95,3.85,3.83,8.46,5.12,13.5,5.12,10.31,0,22.44-5.38,33.68-5.38,2.43,0,4.83,.25,7.15,.87,6.76,1.78,10.29,23.39,8.97,30.26-2.37,12.32-5.14,20.04-5.59,30.65-.08,1.96,1.25,3.69,3.17,4.12,3.72,.84,9.67,2.19,12.9,2.92,1.83,.42,3.28,2.02,3.19,3.9-.15,3.17-4,4.32-7.95,5.33-1.5,.38-3.03,.57-4.55,.57-2.99,0-5.96-.73-8.63-2.17l-8.62-4.63c-1.38-.74-2.22-2.21-2.15-3.78,.26-5.74,.9-13.73,1.28-21.9,.11-2.42-1.85-4.28-4.08-4.28-.46,0-.93,.08-1.4,.25-54.17,19.71-67.53-17.23-34.92,57.52,.55,1.25,.5,2.69-.2,3.86-4.54,7.54-21.89,28.73-27.45,37.18-.99,1.51-.87,3.5,.3,4.87,9.02,10.52,.85,10.98-9.95,12.31-.2,.02-.4,.04-.59,.04-2.35,0-4.12-1.8-4.05-4.26,.34-11.57,13.99-33.66,18.52-42.42,.86-1.65,.47-3.67-.92-4.91-60.04-53.5-59.93-76.55-18.09-146.06,.07-.12,.15-.24,.24-.35,14.93-19.68,36.97-49.82,52.56-75.52,1.41-2.32,1.78-5.69,.47-9.38-.73-2.05-.76-2.13-.15-3.88,.54-1.54,1.97-2.44,3.46-2.44,.66,0,1.33,.17,1.94,.55,2.7,1.63,4.56,2.24,6,2.24,4.04,0,4.62-4.87,10.57-5.61,.02,0,.05,0,.08,0m0-3h0c-.17,0-.31,.01-.45,.03-4.13,.52-6.33,2.6-7.94,4.12-1.24,1.17-1.64,1.47-2.25,1.47-.66,0-1.97-.31-4.44-1.81-1.06-.64-2.27-.98-3.49-.98-2.83,0-5.36,1.79-6.29,4.44-.88,2.51-.77,3.3,.15,5.87,.91,2.56,.83,5.11-.2,6.83-16.32,26.92-39.82,58.71-52.38,75.26-.15,.2-.29,.41-.42,.62-20.54,34.14-31.97,58.32-29.57,80.9,2.19,20.64,15.72,39.97,48.24,68.95,.37,.33,.48,.86,.26,1.29-.83,1.61-1.99,3.7-3.33,6.12-6.06,10.94-15.22,27.46-15.52,37.58-.06,2.01,.64,3.87,1.97,5.24,1.32,1.36,3.12,2.1,5.08,2.1,.32,0,.64-.02,.96-.06l1.41-.17c7.24-.88,12.96-1.58,14.64-5.9,1.49-3.83-1.46-7.98-4.19-11.17-.3-.35-.33-.87-.07-1.26,2.51-3.82,7.7-10.58,12.73-17.11,6.03-7.85,12.26-15.96,14.79-20.16,1.19-1.97,1.33-4.44,.38-6.6-1.4-3.2-2.71-6.2-3.94-9.01-5.45-12.44-9.38-21.43-11.5-27.4-2.34-6.6-1.98-8.28-1.71-8.69,.6-.95,5.41-1.06,9.27-1.16,9.05-.22,22.73-.56,41.09-7.24,.13-.05,.25-.07,.38-.07,.29,0,.58,.13,.79,.35,.21,.22,.31,.49,.29,.8-.2,4.42-.49,8.86-.74,12.78-.21,3.33-.42,6.48-.54,9.12-.12,2.71,1.34,5.28,3.73,6.56l8.62,4.63c3.07,1.65,6.55,2.52,10.05,2.52,1.78,0,3.56-.22,5.29-.67,3.72-.95,9.95-2.54,10.21-8.1,.15-3.28-2.17-6.21-5.52-6.97l-10.31-2.33-2.58-.58c-.5-.11-.85-.56-.83-1.07,.29-6.85,1.62-12.57,3.15-19.19,.79-3.4,1.6-6.92,2.39-11.02,.77-3.98,.15-11.5-1.49-18.3-2.2-9.12-5.45-14.31-9.67-15.42-2.46-.65-5.05-.96-7.92-.97-6.09,0-12.28,1.45-18.26,2.86-5.52,1.3-10.74,2.52-15.43,2.52s-8.32-1.3-11.2-4.08c-1.21-2.1-5.95-14.35-6.18-20.12-.07-2.9,5.73-26.76,14.99-50.68,11.13-28.74,22.88-46.06,32.26-47.52,6.48-1.01,10-2.76,11.08-5.51,.38-.96,.76-2.87-.89-4.97-1.6-2.03-12.44-6.68-14.91-6.68h0Z"/>
    </g>
  </g>
  <path class="cls-1" d="M679.59,246.11c0,7.2-1.06,13.26-3.17,18.19-2.11,4.93-4.93,9-8.45,12.21-3.52,3.21-7.55,5.71-12.09,7.51-4.54,1.8-9.2,3.09-13.97,3.87,6.02,2.19,10.93,4.97,14.73,8.33,3.79,3.37,6.77,6.87,8.92,10.5,2.15,3.64,3.62,7.2,4.4,10.68,.78,3.48,1.17,6.4,1.17,8.75,0,5.87-.86,10.99-2.58,15.38-1.72,4.38-4.05,8.14-6.98,11.27-2.93,3.13-6.36,5.71-10.27,7.75-3.91,2.04-8.08,3.66-12.5,4.87-4.42,1.21-8.96,2.05-13.62,2.52-4.66,.47-9.18,.7-13.56,.7-1.49,0-2.99-.02-4.52-.06-1.53-.04-3.42-.12-5.69-.23-2.27-.12-5.11-.29-8.51-.53-3.4-.24-7.77-.55-13.09-.94-5.32-.39-11.78-.88-19.37-1.47-7.59-.59-16.67-1.27-27.23-2.05l28.41-17.49,8.33-124.07-30.75-19.95c14.48,.16,27.17,.31,38.09,.47,10.92,.16,20.13,.31,27.64,.47,8.76,.16,16.28,.31,22.54,.47,6.1,0,12.27,.92,18.49,2.76,6.22,1.84,11.82,4.56,16.79,8.16,4.97,3.6,9.02,8.08,12.15,13.44,3.13,5.36,4.7,11.52,4.7,18.49Zm-30.99,.7c0-.7-.1-1.94-.29-3.7-.2-1.76-.74-3.76-1.64-5.99-.9-2.23-2.29-4.58-4.17-7.04-1.88-2.46-4.5-4.71-7.86-6.75-3.37-2.03-7.61-3.74-12.74-5.11-5.13-1.37-11.37-2.09-18.72-2.17-3.91,0-7.75,.23-11.5,.7v64.91c2.03,.16,4.07,.23,6.1,.23h5.4c7.51,0,13.85-.74,19.02-2.23,5.16-1.49,9.43-3.4,12.79-5.75,3.36-2.35,5.97-4.91,7.81-7.69,1.84-2.78,3.19-5.48,4.05-8.1,.86-2.62,1.37-4.95,1.53-6.98,.16-2.03,.24-3.48,.24-4.34Zm-44.72,47.66h-5.87c-2.19,0-4.3,.08-6.34,.23v56.46c3.52,.63,6.77,1.06,9.74,1.29,2.97,.24,5.95,.35,8.92,.35,3.99,0,7.96-.45,11.91-1.35,3.95-.9,7.51-2.47,10.68-4.7,3.17-2.23,5.73-5.22,7.69-8.98,1.96-3.76,2.93-8.45,2.93-14.08,0-2.89-.67-6.06-2-9.51-1.33-3.44-3.52-6.61-6.57-9.51-3.05-2.89-7.12-5.32-12.21-7.28-5.09-1.96-11.39-2.93-18.9-2.93Z"/>
  <path class="cls-1" d="M689.22,367.95l18.43-14.44-3.99-80.99-21.71-14.2,50.47-8.57-9.04,94.14,25.24,15.73-59.39,8.33Z"/>
  <path class="cls-1" d="M811.41,369.48c-4.23,0-8.14-.67-11.74-2-3.6-1.33-6.81-3.13-9.62-5.4-2.82-2.27-5.26-4.91-7.34-7.92-2.07-3.01-3.7-6.24-4.87-9.68l-11.86,27.35-4.58-140.15-29.46-11.5,62.21-7.04c-1.57,11.43-2.9,21.62-3.99,30.58-1.1,8.96-2,16.96-2.7,24,4.23-6.34,9.37-11.48,15.44-15.44,6.06-3.95,13.01-5.93,20.83-5.93,5.79,0,10.84,.7,15.14,2.11,4.3,1.41,8,3.34,11.09,5.81,3.09,2.46,5.63,5.36,7.63,8.69,2,3.33,3.58,6.87,4.75,10.62,1.17,3.76,2,7.63,2.46,11.62,.47,3.99,.7,7.94,.7,11.85,0,10.56-1.16,20.29-3.46,29.17-2.31,8.88-5.71,16.53-10.21,22.95-4.5,6.42-10.13,11.41-16.9,14.97-6.77,3.56-14.61,5.34-23.53,5.34Zm1.76-105.05c-3.29,0-6.38,.82-9.27,2.46-2.9,1.64-5.54,3.87-7.92,6.69-2.39,2.82-4.5,6.09-6.34,9.8-1.84,3.72-3.38,7.65-4.64,11.8-.16,2.27-.28,4.21-.35,5.81-.08,1.6-.12,2.95-.12,4.05-.08,1.33-.08,2.43,0,3.29,0,9.08,.66,16.59,2,22.54,1.33,5.95,3.13,10.7,5.4,14.26,2.27,3.56,4.91,6.07,7.92,7.51,3.01,1.45,6.16,2.17,9.45,2.17s6.65-1.25,10.09-3.76c3.44-2.5,6.59-6.1,9.45-10.8,2.86-4.7,5.2-10.37,7.04-17.02,1.84-6.65,2.76-14.16,2.76-22.54,0-5.87-.7-11.07-2.11-15.61-1.41-4.54-3.31-8.33-5.69-11.38-2.39-3.05-5.11-5.36-8.16-6.93-3.05-1.56-6.22-2.35-9.51-2.35Z"/>
  <path class="cls-1" d="M906.13,352.1l23.48,9.39-58.81,5.75,21.13-16.55-3.64-126.77-27.11-11.74,59.39-7.86-14.44,147.78Z"/>
  <path class="cls-1" d="M935.24,307.85c0-8.76,1.39-16.88,4.17-24.36,2.78-7.47,6.65-13.95,11.62-19.43,4.97-5.48,10.88-9.76,17.72-12.85,6.85-3.09,14.34-4.64,22.48-4.64s15.14,1.47,21.71,4.4,12.28,7.06,17.14,12.38c4.85,5.32,8.72,11.7,11.62,19.13,2.89,7.44,4.62,15.65,5.17,24.65,.55,9.62-.45,18.33-2.99,26.12-2.54,7.79-6.28,14.4-11.21,19.84-4.93,5.44-10.82,9.65-17.67,12.62-6.85,2.97-14.26,4.46-22.24,4.46s-14.97-1.39-21.89-4.17c-6.93-2.78-13.03-6.83-18.31-12.15-5.28-5.32-9.49-11.83-12.62-19.54-3.13-7.71-4.7-16.53-4.7-26.47Zm28.88,2c0,6.89,.98,13.11,2.93,18.66,1.95,5.56,4.58,10.27,7.86,14.14,3.29,3.87,7.08,6.87,11.38,8.98,4.3,2.11,8.84,3.17,13.62,3.17s9.23-1.04,13.38-3.11c4.15-2.07,7.75-5.01,10.8-8.8,3.05-3.79,5.44-8.35,7.16-13.67,1.72-5.32,2.58-11.23,2.58-17.72s-.86-12.46-2.58-18.13c-1.72-5.67-4.13-10.62-7.22-14.85-3.09-4.23-6.75-7.55-10.97-9.98-4.23-2.42-8.84-3.64-13.85-3.64-4.46,0-8.79,1.02-12.97,3.05-4.19,2.04-7.92,4.99-11.21,8.86-3.29,3.87-5.93,8.59-7.92,14.14-2,5.56-2.99,11.86-2.99,18.9Z"/>
  <path class="cls-1" d="M1060.25,307.85c0-8.76,1.39-16.88,4.17-24.36,2.78-7.47,6.65-13.95,11.62-19.43,4.97-5.48,10.88-9.76,17.72-12.85,6.85-3.09,14.34-4.64,22.48-4.64s15.14,1.47,21.71,4.4,12.28,7.06,17.14,12.38c4.85,5.32,8.72,11.7,11.62,19.13,2.89,7.44,4.62,15.65,5.17,24.65,.55,9.62-.45,18.33-2.99,26.12-2.54,7.79-6.28,14.4-11.21,19.84-4.93,5.44-10.82,9.65-17.67,12.62-6.85,2.97-14.26,4.46-22.24,4.46s-14.97-1.39-21.89-4.17c-6.93-2.78-13.03-6.83-18.31-12.15-5.28-5.32-9.49-11.83-12.62-19.54-3.13-7.71-4.7-16.53-4.7-26.47Zm28.88,2c0,6.89,.98,13.11,2.93,18.66,1.95,5.56,4.58,10.27,7.86,14.14,3.29,3.87,7.08,6.87,11.38,8.98,4.3,2.11,8.84,3.17,13.62,3.17s9.23-1.04,13.38-3.11c4.15-2.07,7.75-5.01,10.8-8.8,3.05-3.79,5.44-8.35,7.16-13.67,1.72-5.32,2.58-11.23,2.58-17.72s-.86-12.46-2.58-18.13c-1.72-5.67-4.13-10.62-7.22-14.85-3.09-4.23-6.75-7.55-10.97-9.98-4.23-2.42-8.84-3.64-13.85-3.64-4.46,0-8.79,1.02-12.97,3.05-4.19,2.04-7.92,4.99-11.21,8.86-3.29,3.87-5.93,8.59-7.92,14.14-2,5.56-2.99,11.86-2.99,18.9Z"/>
  <path class="cls-1" d="M1298.06,262.43l-24.3,8.45-50,47.54c3.13,3.83,6.14,7.12,9.04,9.86,2.89,2.74,5.63,5.09,8.22,7.04,2.58,1.96,4.99,3.52,7.22,4.7s4.28,2.07,6.16,2.7c4.3,1.49,8.22,1.96,11.74,1.41,2.5-.16,5.2-.94,8.1-2.35,2.5-1.17,5.38-3.05,8.63-5.63,3.25-2.58,6.71-6.3,10.39-11.15-1.41,8.69-3.46,15.9-6.16,21.66-2.7,5.75-5.54,10.33-8.51,13.73-2.97,3.4-5.81,5.81-8.51,7.22-2.7,1.41-4.75,2.11-6.16,2.11-4.07-.63-8.57-2.46-13.5-5.52-2.11-1.25-4.44-2.86-6.98-4.81-2.54-1.96-5.24-4.3-8.1-7.04-2.86-2.74-5.89-5.97-9.1-9.68-3.21-3.72-6.5-8-9.86-12.85l.24,22.54,15.61,13.03h-58.69l18.08-14.67,8.33-130.76-26.18-13.03,41.55-6.93,.82,106.23,32.87-42.02-13.5-14.91,62.56,13.15Z"/>
  <path class="cls-5" d="M728.42,223.87c0,2-.4,3.89-1.2,5.66-.8,1.77-1.9,3.34-3.29,4.71-1.4,1.37-2.99,2.44-4.79,3.21-1.8,.77-3.69,1.15-5.69,1.15-2.13,0-4.11-.38-5.94-1.15-1.83-.77-3.41-1.84-4.74-3.21-1.33-1.37-2.4-2.94-3.19-4.71-.8-1.77-1.2-3.66-1.2-5.66s.4-3.99,1.2-5.76c.8-1.77,1.86-3.32,3.19-4.66s2.91-2.39,4.74-3.16c1.83-.77,3.81-1.15,5.94-1.15,2,0,3.89,.39,5.69,1.15,1.8,.77,3.39,1.82,4.79,3.16,1.4,1.34,2.5,2.89,3.29,4.66,.8,1.77,1.2,3.69,1.2,5.76Z"/>
</svg>