<?xml version="1.0" encoding="UTF-8"?>
<svg id="Calque_1" data-name="Calque 1" xmlns="http://www.w3.org/2000/svg" xmlns:xlink="http://www.w3.org/1999/xlink" viewBox="0 0 1395.42 566.93">
  <defs>
    <style>
      .cls-1 {
        fill: #575756;
      }

      .cls-2 {
        fill: #f07f4e;
      }

      .cls-3 {
        fill: #dadada;
      }

      .cls-4 {
        fill: #0868ae;
      }

      .cls-5 {
        fill: #3c3c3b;
        stroke: #fff;
        stroke-miterlimit: 10;
      }

      .cls-6 {
        fill: #e94a34;
      }

      .cls-7 {
        clip-path: url(#clippath);
      }

      .cls-8 {
        fill: none;
      }

      .cls-9 {
        fill: #1b9690;
      }

      .cls-10 {
        fill: #1d1d1b;
      }
    </style>
    <clipPath id="clippath">
      <circle class="cls-8" cx="283.46" cy="283.46" r="168.45"/>
    </clipPath>
  </defs>
  <g>
    <circle class="cls-4" cx="283.46" cy="283.46" r="168.45"/>
    <circle class="cls-1" cx="222.29" cy="195.22" r="29.65"/>
    <g class="cls-7">
      <g>
        <rect class="cls-2" x="494.92" y="168.56" width="20.38" height="20.38"/>
        <path class="cls-2" d="M517.29,176.08c0,14.22-11.53,25.76-25.76,25.76h-205.39v-8.43h186.34c-4.17-4.57-6.71-10.66-6.71-17.33s2.55-12.77,6.72-17.34h-186.36v-8.42h205.39c14.22,0,25.76,11.52,25.76,25.76Z"/>
        <path class="cls-3" d="M508.87,176.08c0,9.57-7.76,17.33-17.33,17.33h-205.4c9.57,0,9.06-7.76,9.06-17.33s.51-17.33-9.06-17.33h205.4c9.57,0,17.33,7.76,17.33,17.33Z"/>
        <path class="cls-4" d="M542.79,275.51c0,40.69-32.99,73.67-73.68,73.67h-157.36v-7.54h157.37c36.51,0,66.12-29.61,66.12-66.14s-29.61-66.12-66.12-66.12h-157.37v-7.54h157.36c40.69,0,73.68,32.98,73.68,73.67Z"/>
        <rect class="cls-4" x="399.37" y="201.84" width="3.96" height="7.51"/>
        <path class="cls-9" d="M284.67,349.18h190.43v9.2h-167.66c8.81,7.35,14.44,18.4,14.44,30.77s-5.63,23.42-14.42,30.76h-.01s167.65,.01,167.65,.01v9.2h-190.43v-.11c-.91,.08-1.83,.11-2.76,.11-22.07,0-39.96-17.89-39.96-39.97s17.89-39.97,39.96-39.97c.93,0,1.85,.03,2.76,.1v-.1Z"/>
        <rect class="cls-9" x="471.46" y="349.18" width="39.6" height="9.2"/>
        <rect class="cls-9" x="471.46" y="419.92" width="39.6" height="9.2"/>
        <path class="cls-6" d="M448.69,451.92c0,12.1-9.43,22-21.33,22.76-.49,.03-.98,.05-1.48,.05-6.09,0-11.61-2.38-15.7-6.27-4.38-4.15-7.11-10.03-7.11-16.54s2.73-12.39,7.11-16.54H168.28v-6.27H426.08c12.5,.1,22.62,10.27,22.62,22.81Z"/>
        <path class="cls-10" d="M425.88,474.73H169.56v-6.27h240.62c4.09,3.89,9.61,6.27,15.7,6.27Z"/>
        <path class="cls-10" d="M427.37,441.58v.05h-1.48c.5,0,.99-.02,1.48-.05Z"/>
        <path class="cls-3" d="M475.11,358.39v61.52h-190.43c-16.99,0-30.76-13.77-30.76-30.76s13.77-30.76,30.76-30.76h190.43Z"/>
        <path class="cls-3" d="M511.06,419.91h-39.6v-61.52h39.6c-16.98,0-21.73,13.77-21.73,30.76s4.75,30.76,21.73,30.76Z"/>
        <path class="cls-3" d="M442.62,451.92c0,9.14-7.42,16.55-16.55,16.55-.34,0-.69-.01-1.02-.04H169.3c8.66-.52,9.37-7.71,9.37-16.51s-1.25-16.55-10.39-16.55H426.08c9.13,0,16.55,7.41,16.55,16.55Z"/>
        <path class="cls-3" d="M535.25,275.5c0,36.53-29.61,66.14-66.12,66.14h-157.37s14.8-41.96,14.8-66.14-14.8-66.12-14.8-66.12h157.37c36.51,0,66.12,29.61,66.12,66.12Z"/>
      </g>
    </g>
    <path class="cls-5" d="M215.43,231.72c-41.83,69.51-41.95,92.56,18.09,146.06,1.39,1.24,1.78,3.26,.92,4.91-4.52,8.75-18.17,30.84-18.52,42.42-.08,2.66,2,4.55,4.64,4.22,10.8-1.34,18.97-1.79,9.95-12.31-1.17-1.37-1.29-3.36-.3-4.87,5.56-8.45,22.91-29.63,27.45-37.18,.7-1.17,.75-2.61,.2-3.86-32.61-74.75-19.24-37.81,34.92-57.52,2.74-1,5.62,1.12,5.49,4.03-.37,8.17-1.01,16.17-1.28,21.9-.07,1.57,.76,3.04,2.15,3.78l8.62,4.63c4.04,2.17,8.74,2.73,13.18,1.59,3.95-1.01,7.8-2.16,7.95-5.33,.09-1.88-1.36-3.49-3.19-3.9-3.23-.73-9.18-2.08-12.9-2.92-1.92-.43-3.25-2.16-3.17-4.13,.46-10.61,3.22-18.33,5.59-30.65,1.32-6.86-2.21-28.47-8.97-30.26-18.31-4.83-40.91,12.76-54.33-.61-.92-.92-6.61-15.04-6.89-21.95-.28-6.91,24.02-97.27,49.78-101.29,7.24-1.13,10.22-3.21,8.3-5.65-.93-1.17-11.34-5.69-12.63-5.53-8.05,1.01-6.27,9.59-16.56,3.37-2.01-1.21-4.62-.32-5.4,1.89-.61,1.75-.58,1.83,.14,3.88,1.31,3.7,.94,7.07-.47,9.38-15.58,25.7-37.62,55.83-52.56,75.52-.09,.11-.17,.23-.24,.35Z"/>
  </g>
  <path class="cls-10" d="M679.59,246.11c0,7.2-1.06,13.26-3.17,18.19-2.11,4.93-4.93,9-8.45,12.21-3.52,3.21-7.55,5.71-12.09,7.51-4.54,1.8-9.2,3.09-13.97,3.87,6.02,2.19,10.93,4.97,14.73,8.33,3.79,3.37,6.77,6.87,8.92,10.5,2.15,3.64,3.62,7.2,4.4,10.68,.78,3.48,1.17,6.4,1.17,8.75,0,5.87-.86,10.99-2.58,15.38-1.72,4.38-4.05,8.14-6.98,11.27-2.93,3.13-6.36,5.71-10.27,7.75-3.91,2.04-8.08,3.66-12.5,4.87-4.42,1.21-8.96,2.05-13.62,2.52-4.66,.47-9.18,.7-13.56,.7-1.49,0-2.99-.02-4.52-.06-1.53-.04-3.42-.12-5.69-.23-2.27-.12-5.11-.29-8.51-.53-3.4-.24-7.77-.55-13.09-.94-5.32-.39-11.78-.88-19.37-1.47-7.59-.59-16.67-1.27-27.23-2.05l28.41-17.49,8.33-124.07-30.75-19.95c14.48,.16,27.17,.31,38.09,.47,10.92,.16,20.13,.31,27.64,.47,8.76,.16,16.28,.31,22.54,.47,6.1,0,12.27,.92,18.49,2.76,6.22,1.84,11.82,4.56,16.79,8.16,4.97,3.6,9.02,8.08,12.15,13.44,3.13,5.36,4.7,11.52,4.7,18.49Zm-30.99,.7c0-.7-.1-1.94-.29-3.7-.2-1.76-.74-3.76-1.64-5.99-.9-2.23-2.29-4.58-4.17-7.04-1.88-2.46-4.5-4.71-7.86-6.75-3.37-2.03-7.61-3.74-12.74-5.11-5.13-1.37-11.37-2.09-18.72-2.17-3.91,0-7.75,.23-11.5,.7v64.91c2.03,.16,4.07,.23,6.1,.23h5.4c7.51,0,13.85-.74,19.02-2.23,5.16-1.49,9.43-3.4,12.79-5.75,3.36-2.35,5.97-4.91,7.81-7.69,1.84-2.78,3.19-5.48,4.05-8.1,.86-2.62,1.37-4.95,1.53-6.98,.16-2.03,.24-3.48,.24-4.34Zm-44.72,47.66h-5.87c-2.19,0-4.3,.08-6.34,.23v56.46c3.52,.63,6.77,1.06,9.74,1.29,2.97,.24,5.95,.35,8.92,.35,3.99,0,7.96-.45,11.91-1.35,3.95-.9,7.51-2.47,10.68-4.7,3.17-2.23,5.73-5.22,7.69-8.98,1.96-3.76,2.93-8.45,2.93-14.08,0-2.89-.67-6.06-2-9.51-1.33-3.44-3.52-6.61-6.57-9.51-3.05-2.89-7.12-5.32-12.21-7.28-5.09-1.96-11.39-2.93-18.9-2.93Z"/>
  <path class="cls-10" d="M689.22,367.95l18.43-14.44-3.99-80.99-21.71-14.2,50.47-8.57-9.04,94.14,25.24,15.73-59.39,8.33Z"/>
  <path class="cls-10" d="M811.41,369.48c-4.23,0-8.14-.67-11.74-2-3.6-1.33-6.81-3.13-9.62-5.4-2.82-2.27-5.26-4.91-7.34-7.92-2.07-3.01-3.7-6.24-4.87-9.68l-11.86,27.35-4.58-140.15-29.46-11.5,62.21-7.04c-1.57,11.43-2.9,21.62-3.99,30.58-1.1,8.96-2,16.96-2.7,24,4.23-6.34,9.37-11.48,15.44-15.44,6.06-3.95,13.01-5.93,20.83-5.93,5.79,0,10.84,.7,15.14,2.11,4.3,1.41,8,3.34,11.09,5.81,3.09,2.46,5.63,5.36,7.63,8.69,2,3.33,3.58,6.87,4.75,10.62,1.17,3.76,2,7.63,2.46,11.62,.47,3.99,.7,7.94,.7,11.85,0,10.56-1.16,20.29-3.46,29.17-2.31,8.88-5.71,16.53-10.21,22.95-4.5,6.42-10.13,11.41-16.9,14.97-6.77,3.56-14.61,5.34-23.53,5.34Zm1.76-105.05c-3.29,0-6.38,.82-9.27,2.46-2.9,1.64-5.54,3.87-7.92,6.69-2.39,2.82-4.5,6.09-6.34,9.8-1.84,3.72-3.38,7.65-4.64,11.8-.16,2.27-.28,4.21-.35,5.81-.08,1.6-.12,2.95-.12,4.05-.08,1.33-.08,2.43,0,3.29,0,9.08,.66,16.59,2,22.54,1.33,5.95,3.13,10.7,5.4,14.26,2.27,3.56,4.91,6.07,7.92,7.51,3.01,1.45,6.16,2.17,9.45,2.17s6.65-1.25,10.09-3.76c3.44-2.5,6.59-6.1,9.45-10.8,2.86-4.7,5.2-10.37,7.04-17.02,1.84-6.65,2.76-14.16,2.76-22.54,0-5.87-.7-11.07-2.11-15.61-1.41-4.54-3.31-8.33-5.69-11.38-2.39-3.05-5.11-5.36-8.16-6.93-3.05-1.56-6.22-2.35-9.51-2.35Z"/>
  <path class="cls-10" d="M906.13,352.1l23.48,9.39-58.81,5.75,21.13-16.55-3.64-126.77-27.11-11.74,59.39-7.86-14.44,147.78Z"/>
  <path class="cls-10" d="M935.24,307.85c0-8.76,1.39-16.88,4.17-24.36,2.78-7.47,6.65-13.95,11.62-19.43,4.97-5.48,10.88-9.76,17.72-12.85,6.85-3.09,14.34-4.64,22.48-4.64s15.14,1.47,21.71,4.4,12.28,7.06,17.14,12.38c4.85,5.32,8.72,11.7,11.62,19.13,2.89,7.44,4.62,15.65,5.17,24.65,.55,9.62-.45,18.33-2.99,26.12-2.54,7.79-6.28,14.4-11.21,19.84-4.93,5.44-10.82,9.65-17.67,12.62-6.85,2.97-14.26,4.46-22.24,4.46s-14.97-1.39-21.89-4.17c-6.93-2.78-13.03-6.83-18.31-12.15-5.28-5.32-9.49-11.83-12.62-19.54-3.13-7.71-4.7-16.53-4.7-26.47Zm28.88,2c0,6.89,.98,13.11,2.93,18.66,1.95,5.56,4.58,10.27,7.86,14.14,3.29,3.87,7.08,6.87,11.38,8.98,4.3,2.11,8.84,3.17,13.62,3.17s9.23-1.04,13.38-3.11c4.15-2.07,7.75-5.01,10.8-8.8,3.05-3.79,5.44-8.35,7.16-13.67,1.72-5.32,2.58-11.23,2.58-17.72s-.86-12.46-2.58-18.13c-1.72-5.67-4.13-10.62-7.22-14.85-3.09-4.23-6.75-7.55-10.97-9.98-4.23-2.42-8.84-3.64-13.85-3.64-4.46,0-8.79,1.02-12.97,3.05-4.19,2.04-7.92,4.99-11.21,8.86-3.29,3.87-5.93,8.59-7.92,14.14-2,5.56-2.99,11.86-2.99,18.9Z"/>
  <path class="cls-10" d="M1060.25,307.85c0-8.76,1.39-16.88,4.17-24.36,2.78-7.47,6.65-13.95,11.62-19.43,4.97-5.48,10.88-9.76,17.72-12.85,6.85-3.09,14.34-4.64,22.48-4.64s15.14,1.47,21.71,4.4,12.28,7.06,17.14,12.38c4.85,5.32,8.72,11.7,11.62,19.13,2.89,7.44,4.62,15.65,5.17,24.65,.55,9.62-.45,18.33-2.99,26.12-2.54,7.79-6.28,14.4-11.21,19.84-4.93,5.44-10.82,9.65-17.67,12.62-6.85,2.97-14.26,4.46-22.24,4.46s-14.97-1.39-21.89-4.17c-6.93-2.78-13.03-6.83-18.31-12.15-5.28-5.32-9.49-11.83-12.62-19.54-3.13-7.71-4.7-16.53-4.7-26.47Zm28.88,2c0,6.89,.98,13.11,2.93,18.66,1.95,5.56,4.58,10.27,7.86,14.14,3.29,3.87,7.08,6.87,11.38,8.98,4.3,2.11,8.84,3.17,13.62,3.17s9.23-1.04,13.38-3.11c4.15-2.07,7.75-5.01,10.8-8.8,3.05-3.79,5.44-8.35,7.16-13.67,1.72-5.32,2.58-11.23,2.58-17.72s-.86-12.46-2.58-18.13c-1.72-5.67-4.13-10.62-7.22-14.85-3.09-4.23-6.75-7.55-10.97-9.98-4.23-2.42-8.84-3.64-13.85-3.64-4.46,0-8.79,1.02-12.97,3.05-4.19,2.04-7.92,4.99-11.21,8.86-3.29,3.87-5.93,8.59-7.92,14.14-2,5.56-2.99,11.86-2.99,18.9Z"/>
  <path class="cls-10" d="M1298.06,262.43l-24.3,8.45-50,47.54c3.13,3.83,6.14,7.12,9.04,9.86,2.89,2.74,5.63,5.09,8.22,7.04,2.58,1.96,4.99,3.52,7.22,4.7s4.28,2.07,6.16,2.7c4.3,1.49,8.22,1.96,11.74,1.41,2.5-.16,5.2-.94,8.1-2.35,2.5-1.17,5.38-3.05,8.63-5.63,3.25-2.58,6.71-6.3,10.39-11.15-1.41,8.69-3.46,15.9-6.16,21.66-2.7,5.75-5.54,10.33-8.51,13.73-2.97,3.4-5.81,5.81-8.51,7.22-2.7,1.41-4.75,2.11-6.16,2.11-4.07-.63-8.57-2.46-13.5-5.52-2.11-1.25-4.44-2.86-6.98-4.81-2.54-1.96-5.24-4.3-8.1-7.04-2.86-2.74-5.89-5.97-9.1-9.68-3.21-3.72-6.5-8-9.86-12.85l.24,22.54,15.61,13.03h-58.69l18.08-14.67,8.33-130.76-26.18-13.03,41.55-6.93,.82,106.23,32.87-42.02-13.5-14.91,62.56,13.15Z"/>
  <path class="cls-4" d="M728.42,223.87c0,2-.4,3.89-1.2,5.66-.8,1.77-1.9,3.34-3.29,4.71-1.4,1.37-2.99,2.44-4.79,3.21-1.8,.77-3.69,1.15-5.69,1.15-2.13,0-4.11-.38-5.94-1.15-1.83-.77-3.41-1.84-4.74-3.21-1.33-1.37-2.4-2.94-3.19-4.71-.8-1.77-1.2-3.66-1.2-5.66s.4-3.99,1.2-5.76c.8-1.77,1.86-3.32,3.19-4.66s2.91-2.39,4.74-3.16c1.83-.77,3.81-1.15,5.94-1.15,2,0,3.89,.39,5.69,1.15,1.8,.77,3.39,1.82,4.79,3.16,1.4,1.34,2.5,2.89,3.29,4.66,.8,1.77,1.2,3.69,1.2,5.76Z"/>
</svg>