<?xml version="1.0" encoding="UTF-8"?>
<svg id="Calque_1" data-name="Calque 1" xmlns="http://www.w3.org/2000/svg" xmlns:xlink="http://www.w3.org/1999/xlink" viewBox="0 0 566.93 685.4">
  <defs>
    <style>
      .cls-1 {
        fill: #575756;
      }

      .cls-2 {
        fill: #f07f4e;
      }

      .cls-3 {
        fill: #f9b017;
      }

      .cls-4 {
        fill: #dadada;
      }

      .cls-5 {
        fill: #0868ae;
      }

      .cls-6 {
        fill: #3c3c3b;
      }

      .cls-7 {
        fill: #e94a34;
      }

      .cls-8 {
        clip-path: url(#clippath);
      }

      .cls-9 {
        fill: none;
      }

      .cls-10 {
        fill: #1b9690;
      }

      .cls-11 {
        fill: #1d1d1b;
      }
    </style>
    <clipPath id="clippath">
      <circle class="cls-9" cx="283.46" cy="283.46" r="168.45"/>
    </clipPath>
  </defs>
  <g>
    <path class="cls-11" d="M161.17,530.17c3.25,1.31,5.62,1.97,7.7,3.14,8.78,4.95,13.59,14.67,11.95,23.72-1.51,8.32-11.39,16.5-21.46,18.67-15.42,3.32-30.96,1.61-46.46,1.66-4.1,.01-8.22-.7-12.3-1.26-.98-.14-1.86-1.01-2.79-1.54l.3-1.67c3.82,.19,7.63,.37,12.21,.6v-76.99c-2.35-.59-5.02-1.25-9.1-2.27,2.22-1.24,3.12-2.15,4.06-2.2,12.63-.63,25.28-1.62,37.9-1.45,5.88,.08,11.94,1.94,17.56,3.98,13.36,4.85,15.57,24.2,4.83,31.72-1.35,.95-2.5,2.19-4.42,3.9Zm-34.41,3.16c0,6.43,.1,11.74-.03,17.06-.13,5.36-.7,10.72-.72,16.08-.03,7.27,.21,7.37,7.25,7.44,1.95,.02,3.91,.02,5.86,.02,17.87,.02,23.93-6.22,23.11-23.79-.45-9.61-5.56-15.8-14.9-16.68-6.94-.65-13.99-.13-20.57-.13Zm-1.27-16.25c-.36,14.84-.12,12.66,10.17,12.77,.73,0,1.47,.09,2.19,0,6.65-.93,12.77-2.97,17.23-8.41,7.11-8.67,3.74-21.99-6.81-25.43-4.5-1.46-9.44-1.67-14.21-2.2-4.1-.46-6.31,1.46-6.69,5.74-.59,6.78-1.44,13.53-1.88,17.54Z"/>
    <path class="cls-11" d="M443.01,575.62c6.79-3.15,5.79-6.41,3.51-10.41-3.23-5.67-5.87-11.68-8.85-17.73-7.85,2.91-5.12,9.16-5.88,14.26-.9,6.07,1.16,10.15,7.02,13.01-9.26,1.75-18.14,.72-27.08,.89,.1-1.3,.02-2.1,.19-2.16,7.64-2.61,9.12-8.98,9.11-15.77-.03-18.3-.36-36.59-.65-54.88-.05-3.4-.66-6.53-5.43-5.74-.69,.11-1.55-.84-2.92-1.65,1.18-.9,1.78-1.61,2.53-1.89,4.26-1.57,8.64-2.87,12.83-4.6,2.51-1.03,3.76-.48,4.06,2.08,.19,1.69,.04,3.41,.04,5.12v49.07c7.82-3.83,13.16-9.34,17.95-15.26,3.26-4.02,2.6-5.15-4.52-9.58,8.59-.7,15.54-2.08,22.92-1.67-.29,1.43-.28,2.22-.48,2.28-9.14,2.59-13.24,11.12-19.7,16.85-1.02,.9-1.41,3.79-.76,5.09,4.03,8.06,8.14,16.13,12.91,23.76,1.65,2.64,5.35,3.96,7.96,6.08,.75,.61,1.08,1.86,1.33,2.88,.05,.22-1.07,1.03-1.66,1.04-6.5,.15-13.01,.22-19.52,.24-.88,0-1.76-.45-4.93-1.31Z"/>
    <path class="cls-11" d="M220.82,574.66c0-1.89-.25-3.82,.04-5.67,3.28-21.38,2.43-42.75,.09-64.15-.51-4.61-1-8.77-8.11-9.01,2.06-1.84,2.96-3.34,4.05-3.49,4.57-.61,9.19-.86,13.8-1.14,2.9-.18,2.91,1.93,2.84,3.96-.26,7.79-.55,15.59-.79,23.38-.06,1.86,0,3.72,0,5.66,4.23-1.41,7.81-3.23,11.55-3.66,2.87-.33,6.52,.25,8.82,1.86,16.44,11.54,15.22,42.28-1.86,52.56-6.69,4.03-11.56,3.19-16.66-2.88-4.03-4.79-4.2-4.76-8.6,.12-1.05,1.16-2.36,2.09-3.55,3.13-.53-.23-1.06-.46-1.59-.68Zm33.95-30.01c-.16-2.91-.3-5.83-.48-8.74-.06-.97-.2-1.94-.38-2.89-1.3-6.78-4.35-9.35-10.29-8.72-5.97,.63-10.73,5.45-10.52,11.07,.29,7.73,.67,15.47,1.45,23.16,.34,3.31,1.25,6.82,2.9,9.66,1.33,2.28,4.16,5.1,6.31,5.09,2.06,0,4.81-2.98,6.04-5.3,3.81-7.23,5.31-15.12,4.97-23.33Z"/>
    <path class="cls-11" d="M382.68,575.89c-12.6,.81-24.78-11.82-25.6-26.41-.89-16.02,12.94-28.47,24.89-29.63,13.51-1.31,28.08,12.19,29.16,26.34,1.14,14.98-11.95,28.65-28.45,29.71Zm16.43-27.57c-.83-4.93-1.41-10.51-2.77-15.9-1.59-6.32-7.64-7.29-12.67-8.31-4.8-.97-7.2,3.3-9.16,7.02-5.71,10.85-5.4,22.06-1.51,33.34,2.16,6.26,4.66,7.98,10.62,7.94,7.53-.06,11.37-2.13,13.02-8.23,1.32-4.89,1.61-10.06,2.47-15.85Z"/>
    <path class="cls-11" d="M325.83,575.82c-13.19,.92-24.9-10.33-26.37-24.56-1.87-18.12,13.01-30.06,24.32-31.4,13.64-1.62,28.54,12.21,29.46,26.77,.92,14.44-11.92,28.12-27.42,29.2Zm15.48-26.96c-.75-4.87-1.21-10.21-2.46-15.35-1.28-5.28-7.49-9.77-13.22-9.68-5.06,.09-7.4,4.05-9.4,8.05-5.34,10.67-4.77,21.62-1.16,32.56,2.14,6.49,4.89,8.17,11.28,7.97,7.6-.24,11.26-2.7,12.81-9.38,1.04-4.46,1.4-9.08,2.14-14.16Z"/>
    <path class="cls-11" d="M265.68,494.9c6.95-2.28,12.84-4.35,18.83-6.03,.95-.27,3.05,1,3.48,2.04,.6,1.45,.1,3.34,.12,5.05,.26,22.65,.47,45.31,.82,67.96,.1,6.48,.81,6.92,8.15,7.53,.79,.07,2.19,.95,2.14,1.27-.16,1.05-.65,2.56-1.42,2.88-1.25,.51-2.84,.33-4.27,.21-8.5-.7-16.99-1.35-25.43,.71-.74,.18-1.68-.48-2.93-2.05,1.51-.66,2.98-1.69,4.55-1.9,4.3-.58,6.6-2.75,6.76-7.14,.22-6.06,.7-12.13,.66-18.19-.09-14.12-.43-28.24-.66-42.37-.12-7.42-.12-7.39-7.5-8.45-.84-.12-1.61-.73-3.29-1.53Z"/>
    <path class="cls-11" d="M185.15,574.56c.56-.5,1.15-1.49,1.88-1.61,6.9-1.14,8.11-6.04,7.99-11.84-.19-9.47-.46-18.94-.62-28.42-.07-3.9-.45-7.35-5.6-7.48-.67-.02-1.32-1.12-3.05-2.69,7.27-1.03,13.36-2.02,19.49-2.59,.69-.06,2.29,2.18,2.31,3.37,.16,13.1,.08,26.2,.11,39.3,0,2.17-.44,4.82,.62,6.37,.92,1.36,3.71,1.38,5.57,2.22,.74,.33,1.77,1.4,1.66,1.92-.16,.74-1.22,1.8-1.93,1.83-9.31,.32-18.63,.48-27.94,.65-.1,0-.2-.41-.48-1.01Z"/>
    <circle class="cls-3" cx="198.42" cy="504.51" r="9.13"/>
  </g>
  <g>
    <circle class="cls-7" cx="283.46" cy="283.46" r="168.45"/>
    <circle class="cls-1" cx="222.29" cy="195.22" r="29.65"/>
    <g class="cls-8">
      <g>
        <rect class="cls-2" x="494.92" y="168.56" width="20.38" height="20.38"/>
        <path class="cls-2" d="M517.29,176.08c0,14.22-11.53,25.76-25.76,25.76h-205.39v-8.43h186.34c-4.17-4.57-6.71-10.66-6.71-17.33s2.55-12.77,6.72-17.34h-186.36v-8.42h205.39c14.22,0,25.76,11.52,25.76,25.76Z"/>
        <path class="cls-4" d="M508.87,176.08c0,9.57-7.76,17.33-17.33,17.33h-205.4c9.57,0,9.06-7.76,9.06-17.33s.51-17.33-9.06-17.33h205.4c9.57,0,17.33,7.76,17.33,17.33Z"/>
        <path class="cls-5" d="M542.79,275.51c0,40.69-32.99,73.67-73.68,73.67h-157.36v-7.54h157.37c36.51,0,66.12-29.61,66.12-66.14s-29.61-66.12-66.12-66.12h-157.37v-7.54h157.36c40.69,0,73.68,32.98,73.68,73.67Z"/>
        <rect class="cls-5" x="399.37" y="201.84" width="3.96" height="7.51"/>
        <path class="cls-10" d="M284.67,349.18h190.43v9.2h-167.66c8.81,7.35,14.44,18.4,14.44,30.77s-5.63,23.42-14.42,30.76h-.01s167.65,.01,167.65,.01v9.2h-190.43v-.11c-.91,.08-1.83,.11-2.76,.11-22.07,0-39.96-17.89-39.96-39.97s17.89-39.97,39.96-39.97c.93,0,1.85,.03,2.76,.1v-.1Z"/>
        <rect class="cls-10" x="471.46" y="349.18" width="39.6" height="9.2"/>
        <rect class="cls-10" x="471.46" y="419.92" width="39.6" height="9.2"/>
        <path class="cls-7" d="M448.69,451.92c0,12.1-9.43,22-21.33,22.76-.49,.03-.98,.05-1.48,.05-6.09,0-11.61-2.38-15.7-6.27-4.38-4.15-7.11-10.03-7.11-16.54s2.73-12.39,7.11-16.54H168.28v-6.27H426.08c12.5,.1,22.62,10.27,22.62,22.81Z"/>
        <path class="cls-11" d="M425.88,474.73H169.56v-6.27h240.62c4.09,3.89,9.61,6.27,15.7,6.27Z"/>
        <path class="cls-11" d="M427.37,441.58v.05h-1.48c.5,0,.99-.02,1.48-.05Z"/>
        <path class="cls-4" d="M475.11,358.39v61.52h-190.43c-16.99,0-30.76-13.77-30.76-30.76s13.77-30.76,30.76-30.76h190.43Z"/>
        <path class="cls-4" d="M511.06,419.91h-39.6v-61.52h39.6c-16.98,0-21.73,13.77-21.73,30.76s4.75,30.76,21.73,30.76Z"/>
        <path class="cls-4" d="M442.62,451.92c0,9.14-7.42,16.55-16.55,16.55-.34,0-.69-.01-1.02-.04H169.3c8.66-.52,9.37-7.71,9.37-16.51s-1.25-16.55-10.39-16.55H426.08c9.13,0,16.55,7.41,16.55,16.55Z"/>
        <path class="cls-4" d="M535.25,275.5c0,36.53-29.61,66.14-66.12,66.14h-157.37s14.8-41.96,14.8-66.14-14.8-66.12-14.8-66.12h157.37c36.51,0,66.12,29.61,66.12,66.12Z"/>
      </g>
    </g>
    <path class="cls-6" d="M215.43,231.72c-41.83,69.51-41.95,92.56,18.09,146.06,1.39,1.24,1.78,3.26,.92,4.91-4.52,8.75-18.17,30.84-18.52,42.42-.08,2.66,2,4.55,4.64,4.22,10.8-1.34,18.97-1.79,9.95-12.31-1.17-1.37-1.29-3.36-.3-4.87,5.56-8.45,22.91-29.63,27.45-37.18,.7-1.17,.75-2.61,.2-3.86-32.61-74.75-19.24-37.81,34.92-57.52,2.74-1,5.62,1.12,5.49,4.03-.37,8.17-1.01,16.17-1.28,21.9-.07,1.57,.76,3.04,2.15,3.78l8.62,4.63c4.04,2.17,8.74,2.73,13.18,1.59,3.95-1.01,7.8-2.16,7.95-5.33,.09-1.88-1.36-3.49-3.19-3.9-3.23-.73-9.18-2.08-12.9-2.92-1.92-.43-3.25-2.16-3.17-4.13,.46-10.61,3.22-18.33,5.59-30.65,1.32-6.86-2.21-28.47-8.97-30.26-18.31-4.83-40.91,12.76-54.33-.61-.92-.92-6.61-15.04-6.89-21.95-.28-6.91,24.02-97.27,49.78-101.29,7.24-1.13,10.22-3.21,8.3-5.65-.93-1.17-11.34-5.69-12.63-5.53-8.05,1.01-6.27,9.59-16.56,3.37-2.01-1.21-4.62-.32-5.4,1.89-.61,1.75-.58,1.83,.14,3.88,1.31,3.7,.94,7.07-.47,9.38-15.58,25.7-37.62,55.83-52.56,75.52-.09,.11-.17,.23-.24,.35Z"/>
  </g>
  <path class="cls-11" d="M161.17,530.17c3.25,1.31,5.62,1.97,7.7,3.14,8.78,4.95,13.59,14.67,11.95,23.72-1.51,8.32-11.39,16.5-21.46,18.67-15.42,3.32-30.96,1.61-46.46,1.66-4.1,.01-8.22-.7-12.3-1.26-.98-.14-1.86-1.01-2.79-1.54l.3-1.67c3.82,.19,7.63,.37,12.21,.6v-76.99c-2.35-.59-5.02-1.25-9.1-2.27,2.22-1.24,3.12-2.15,4.06-2.2,12.63-.63,25.28-1.62,37.9-1.45,5.88,.08,11.94,1.94,17.56,3.98,13.36,4.85,15.57,24.2,4.83,31.72-1.35,.95-2.5,2.19-4.42,3.9Zm-34.41,3.16c0,6.43,.1,11.74-.03,17.06-.13,5.36-.7,10.72-.72,16.08-.03,7.27,.21,7.37,7.25,7.44,1.95,.02,3.91,.02,5.86,.02,17.87,.02,23.93-6.22,23.11-23.79-.45-9.61-5.56-15.8-14.9-16.68-6.94-.65-13.99-.13-20.57-.13Zm-1.27-16.25c-.36,14.84-.12,12.66,10.17,12.77,.73,0,1.47,.09,2.19,0,6.65-.93,12.77-2.97,17.23-8.41,7.11-8.67,3.74-21.99-6.81-25.43-4.5-1.46-9.44-1.67-14.21-2.2-4.1-.46-6.31,1.46-6.69,5.74-.59,6.78-1.44,13.53-1.88,17.54Z"/>
  <path class="cls-11" d="M443.01,575.62c6.79-3.15,5.79-6.41,3.51-10.41-3.23-5.67-5.87-11.68-8.85-17.73-7.85,2.91-5.12,9.16-5.88,14.26-.9,6.07,1.16,10.15,7.02,13.01-9.26,1.75-18.14,.72-27.08,.89,.1-1.3,.02-2.1,.19-2.16,7.64-2.61,9.12-8.98,9.11-15.77-.03-18.3-.36-36.59-.65-54.88-.05-3.4-.66-6.53-5.43-5.74-.69,.11-1.55-.84-2.92-1.65,1.18-.9,1.78-1.61,2.53-1.89,4.26-1.57,8.64-2.87,12.83-4.6,2.51-1.03,3.76-.48,4.06,2.08,.19,1.69,.04,3.41,.04,5.12v49.07c7.82-3.83,13.16-9.34,17.95-15.26,3.26-4.02,2.6-5.15-4.52-9.58,8.59-.7,15.54-2.08,22.92-1.67-.29,1.43-.28,2.22-.48,2.28-9.14,2.59-13.24,11.12-19.7,16.85-1.02,.9-1.41,3.79-.76,5.09,4.03,8.06,8.14,16.13,12.91,23.76,1.65,2.64,5.35,3.96,7.96,6.08,.75,.61,1.08,1.86,1.33,2.88,.05,.22-1.07,1.03-1.66,1.04-6.5,.15-13.01,.22-19.52,.24-.88,0-1.76-.45-4.93-1.31Z"/>
  <path class="cls-11" d="M220.82,574.66c0-1.89-.25-3.82,.04-5.67,3.28-21.38,2.43-42.75,.09-64.15-.51-4.61-1-8.77-8.11-9.01,2.06-1.84,2.96-3.34,4.05-3.49,4.57-.61,9.19-.86,13.8-1.14,2.9-.18,2.91,1.93,2.84,3.96-.26,7.79-.55,15.59-.79,23.38-.06,1.86,0,3.72,0,5.66,4.23-1.41,7.81-3.23,11.55-3.66,2.87-.33,6.52,.25,8.82,1.86,16.44,11.54,15.22,42.28-1.86,52.56-6.69,4.03-11.56,3.19-16.66-2.88-4.03-4.79-4.2-4.76-8.6,.12-1.05,1.16-2.36,2.09-3.55,3.13-.53-.23-1.06-.46-1.59-.68Zm33.95-30.01c-.16-2.91-.3-5.83-.48-8.74-.06-.97-.2-1.94-.38-2.89-1.3-6.78-4.35-9.35-10.29-8.72-5.97,.63-10.73,5.45-10.52,11.07,.29,7.73,.67,15.47,1.45,23.16,.34,3.31,1.25,6.82,2.9,9.66,1.33,2.28,4.16,5.1,6.31,5.09,2.06,0,4.81-2.98,6.04-5.3,3.81-7.23,5.31-15.12,4.97-23.33Z"/>
  <path class="cls-11" d="M382.68,575.89c-12.6,.81-24.78-11.82-25.6-26.41-.89-16.02,12.94-28.47,24.89-29.63,13.51-1.31,28.08,12.19,29.16,26.34,1.14,14.98-11.95,28.65-28.45,29.71Zm16.43-27.57c-.83-4.93-1.41-10.51-2.77-15.9-1.59-6.32-7.64-7.29-12.67-8.31-4.8-.97-7.2,3.3-9.16,7.02-5.71,10.85-5.4,22.06-1.51,33.34,2.16,6.26,4.66,7.98,10.62,7.94,7.53-.06,11.37-2.13,13.02-8.23,1.32-4.89,1.61-10.06,2.47-15.85Z"/>
  <path class="cls-11" d="M325.83,575.82c-13.19,.92-24.9-10.33-26.37-24.56-1.87-18.12,13.01-30.06,24.32-31.4,13.64-1.62,28.54,12.21,29.46,26.77,.92,14.44-11.92,28.12-27.42,29.2Zm15.48-26.96c-.75-4.87-1.21-10.21-2.46-15.35-1.28-5.28-7.49-9.77-13.22-9.68-5.06,.09-7.4,4.05-9.4,8.05-5.34,10.67-4.77,21.62-1.16,32.56,2.14,6.49,4.89,8.17,11.28,7.97,7.6-.24,11.26-2.7,12.81-9.38,1.04-4.46,1.4-9.08,2.14-14.16Z"/>
  <path class="cls-11" d="M265.68,494.9c6.95-2.28,12.84-4.35,18.83-6.03,.95-.27,3.05,1,3.48,2.04,.6,1.45,.1,3.34,.12,5.05,.26,22.65,.47,45.31,.82,67.96,.1,6.48,.81,6.92,8.15,7.53,.79,.07,2.19,.95,2.14,1.27-.16,1.05-.65,2.56-1.42,2.88-1.25,.51-2.84,.33-4.27,.21-8.5-.7-16.99-1.35-25.43,.71-.74,.18-1.68-.48-2.93-2.05,1.51-.66,2.98-1.69,4.55-1.9,4.3-.58,6.6-2.75,6.76-7.14,.22-6.06,.7-12.13,.66-18.19-.09-14.12-.43-28.24-.66-42.37-.12-7.42-.12-7.39-7.5-8.45-.84-.12-1.61-.73-3.29-1.53Z"/>
  <path class="cls-11" d="M185.15,574.56c.56-.5,1.15-1.49,1.88-1.61,6.9-1.14,8.11-6.04,7.99-11.84-.19-9.47-.46-18.94-.62-28.42-.07-3.9-.45-7.35-5.6-7.48-.67-.02-1.32-1.12-3.05-2.69,7.27-1.03,13.36-2.02,19.49-2.59,.69-.06,2.29,2.18,2.31,3.37,.16,13.1,.08,26.2,.11,39.3,0,2.17-.44,4.82,.62,6.37,.92,1.36,3.71,1.38,5.57,2.22,.74,.33,1.77,1.4,1.66,1.92-.16,.74-1.22,1.8-1.93,1.83-9.31,.32-18.63,.48-27.94,.65-.1,0-.2-.41-.48-1.01Z"/>
  <circle class="cls-7" cx="198.42" cy="504.51" r="9.13"/>
</svg>