<?xml version="1.0" encoding="UTF-8"?>
<svg id="Calque_1" data-name="Calque 1" xmlns="http://www.w3.org/2000/svg" xmlns:xlink="http://www.w3.org/1999/xlink" viewBox="0 0 1395.42 566.93">
  <defs>
    <style>
      .cls-1 {
        fill: #575756;
      }

      .cls-2 {
        fill: #f07f4e;
      }

      .cls-3 {
        fill: #dadada;
      }

      .cls-4 {
        fill: #0868ae;
      }

      .cls-5 {
        fill: #3c3c3b;
      }

      .cls-6 {
        fill: #e94a34;
      }

      .cls-7 {
        clip-path: url(#clippath);
      }

      .cls-8 {
        fill: none;
      }

      .cls-9 {
        fill: #1b9690;
      }

      .cls-10 {
        fill: #1d1d1b;
      }
    </style>
    <clipPath id="clippath">
      <circle class="cls-8" cx="283.46" cy="283.46" r="168.45"/>
    </clipPath>
  </defs>
  <g>
    <path class="cls-10" d="M662.65,277.6c6.51,2.61,11.25,3.94,15.4,6.28,17.56,9.91,27.19,29.33,23.89,47.43-3.03,16.63-22.78,33-42.92,37.33-30.85,6.64-61.92,3.21-92.91,3.32-8.2,.03-16.43-1.4-24.6-2.52-1.97-.27-3.73-2.02-5.58-3.09,.2-1.11,.4-2.23,.6-3.34,7.63,.37,15.27,.75,24.43,1.2V210.23c-4.7-1.17-10.04-2.5-18.2-4.53,4.45-2.48,6.25-4.31,8.13-4.4,25.26-1.25,50.55-3.25,75.81-2.89,11.77,.17,23.88,3.87,35.12,7.95,26.72,9.7,31.13,48.4,9.66,63.43-2.71,1.89-5,4.39-8.83,7.81Zm-68.81,6.33c0,12.85,.21,23.49-.06,34.11-.27,10.73-1.4,21.44-1.44,32.16-.05,14.53,.43,14.73,14.51,14.88,3.9,.04,7.81,.03,11.72,.04,35.74,.04,47.87-12.44,46.22-47.57-.9-19.21-11.12-31.6-29.8-33.36-13.88-1.3-27.99-.26-41.15-.26Zm-2.54-32.5c-.72,29.69-.24,25.32,20.33,25.55,1.46,.02,2.94,.18,4.38-.02,13.31-1.86,25.53-5.94,34.45-16.83,14.21-17.34,7.49-43.99-13.61-50.85-9-2.93-18.88-3.34-28.42-4.41-8.2-.92-12.63,2.92-13.38,11.47-1.18,13.56-2.88,27.07-3.75,35.08Z"/>
    <path class="cls-10" d="M1226.34,368.49c13.58-6.31,11.58-12.83,7.02-20.82-6.46-11.34-11.74-23.37-17.7-35.46-15.7,5.81-10.25,18.31-11.76,28.53-1.8,12.14,2.32,20.3,14.05,26.02-18.52,3.49-36.28,1.44-54.16,1.77,.2-2.6,.04-4.2,.38-4.32,15.29-5.22,18.24-17.95,18.22-31.54-.06-36.59-.72-73.18-1.29-109.77-.11-6.79-1.31-13.06-10.86-11.49-1.37,.23-3.1-1.68-5.83-3.29,2.37-1.8,3.56-3.22,5.07-3.77,8.53-3.14,17.27-5.74,25.66-9.2,5.01-2.07,7.53-.95,8.11,4.15,.39,3.37,.07,6.82,.07,10.24v98.15c15.63-7.67,26.32-18.67,35.91-30.52,6.51-8.04,5.2-10.29-9.03-19.15,17.18-1.4,31.08-4.16,45.83-3.35-.57,2.86-.56,4.44-.96,4.55-18.28,5.18-26.48,22.25-39.39,33.7-2.04,1.81-2.82,7.58-1.51,10.19,8.07,16.12,16.28,32.25,25.82,47.52,3.31,5.29,10.71,7.92,15.93,12.15,1.5,1.22,2.15,3.72,2.65,5.76,.11,.43-2.14,2.06-3.32,2.09-13.01,.3-26.02,.45-39.04,.47-1.76,0-3.52-.89-9.86-2.61Z"/>
    <path class="cls-10" d="M781.97,366.58c0-3.78-.49-7.65,.08-11.34,6.56-42.77,4.86-85.5,.17-128.3-1.01-9.22-2-17.54-16.23-18.02,4.12-3.68,5.93-6.69,8.09-6.97,9.14-1.22,18.39-1.72,27.61-2.28,5.8-.35,5.82,3.86,5.68,7.92-.52,15.59-1.09,31.17-1.59,46.76-.12,3.72-.02,7.44-.02,11.32,8.46-2.82,15.62-6.45,23.09-7.31,5.73-.66,13.04,.5,17.63,3.72,32.88,23.09,30.45,84.56-3.71,105.12-13.39,8.06-23.12,6.38-33.33-5.75-8.06-9.58-8.4-9.52-17.2,.23-2.1,2.33-4.72,4.19-7.11,6.26-1.06-.46-2.12-.91-3.17-1.37Zm67.89-60.02c-.31-5.82-.59-11.65-.96-17.47-.12-1.94-.4-3.88-.77-5.79-2.61-13.56-8.7-18.71-20.57-17.44-11.94,1.27-21.47,10.89-21.04,22.15,.58,15.46,1.34,30.94,2.91,46.32,.67,6.62,2.5,13.63,5.79,19.31,2.65,4.57,8.32,10.2,12.63,10.19,4.13-.02,9.63-5.97,12.07-10.61,7.62-14.46,10.62-30.24,9.95-46.65Z"/>
    <path class="cls-10" d="M1105.68,369.05c-25.2,1.62-49.57-23.64-51.2-52.83-1.79-32.04,25.88-56.94,49.78-59.27,27.01-2.62,56.16,24.39,58.32,52.67,2.29,29.95-23.9,57.3-56.91,59.42Zm32.87-55.14c-1.66-9.86-2.83-21.03-5.55-31.81-3.19-12.64-15.27-14.59-25.35-16.62-9.6-1.93-14.41,6.6-18.33,14.04-11.43,21.7-10.81,44.11-3.01,66.67,4.32,12.52,9.31,15.96,21.25,15.87,15.06-.11,22.75-4.25,26.04-16.45,2.64-9.78,3.23-20.12,4.95-31.71Z"/>
    <path class="cls-10" d="M991.97,368.9c-26.39,1.84-49.8-20.65-52.73-49.11-3.74-36.23,26.02-60.13,48.65-62.81,27.28-3.23,57.07,24.43,58.92,53.53,1.83,28.89-23.85,56.24-54.83,58.39Zm30.96-53.93c-1.49-9.74-2.41-20.42-4.91-30.71-2.57-10.56-14.99-19.55-26.43-19.36-10.12,.17-14.79,8.1-18.8,16.1-10.68,21.34-9.54,43.24-2.31,65.12,4.29,12.98,9.77,16.35,22.56,15.94,15.2-.49,22.51-5.41,25.62-18.76,2.08-8.92,2.79-18.16,4.27-28.33Z"/>
    <path class="cls-10" d="M871.68,207.05c13.91-4.56,25.67-8.71,37.66-12.05,1.91-.53,6.1,2.01,6.95,4.07,1.19,2.9,.19,6.69,.23,10.1,.51,45.3,.94,90.61,1.63,135.91,.2,12.95,1.61,13.85,16.3,15.07,1.57,.13,4.39,1.9,4.28,2.55-.33,2.09-1.3,5.13-2.84,5.75-2.5,1.01-5.68,.66-8.54,.43-17.01-1.39-33.98-2.69-50.86,1.43-1.48,.36-3.37-.95-5.86-4.09,3.03-1.32,5.95-3.39,9.1-3.81,8.61-1.15,13.21-5.5,13.52-14.27,.44-12.13,1.39-24.26,1.31-36.38-.18-28.25-.85-56.49-1.31-84.73-.24-14.84-.23-14.79-15.01-16.9-1.68-.24-3.22-1.46-6.58-3.06Z"/>
    <path class="cls-10" d="M710.61,366.37c1.12-1.01,2.3-2.98,3.76-3.22,13.81-2.28,16.22-12.08,15.99-23.68-.39-18.95-.93-37.89-1.25-56.84-.13-7.8-.91-14.69-11.19-14.97-1.35-.04-2.64-2.23-6.1-5.39,14.54-2.06,26.73-4.03,38.98-5.18,1.38-.13,4.58,4.36,4.61,6.73,.33,26.2,.16,52.4,.22,78.6,.01,4.34-.87,9.63,1.23,12.73,1.85,2.72,7.42,2.76,11.14,4.44,1.48,.67,3.54,2.8,3.32,3.84-.32,1.48-2.45,3.61-3.87,3.66-18.62,.63-37.25,.95-55.88,1.29-.19,0-.4-.82-.96-2.02Z"/>
    <circle class="cls-6" cx="737.16" cy="226.28" r="18.26"/>
  </g>
  <g>
    <circle class="cls-6" cx="283.46" cy="283.46" r="168.45"/>
    <circle class="cls-1" cx="222.29" cy="195.22" r="29.65"/>
    <g class="cls-7">
      <g>
        <rect class="cls-2" x="494.92" y="168.56" width="20.38" height="20.38"/>
        <path class="cls-2" d="M517.29,176.08c0,14.22-11.53,25.76-25.76,25.76h-205.39v-8.43h186.34c-4.17-4.57-6.71-10.66-6.71-17.33s2.55-12.77,6.72-17.34h-186.36v-8.42h205.39c14.22,0,25.76,11.52,25.76,25.76Z"/>
        <path class="cls-3" d="M508.87,176.08c0,9.57-7.76,17.33-17.33,17.33h-205.4c9.57,0,9.06-7.76,9.06-17.33s.51-17.33-9.06-17.33h205.4c9.57,0,17.33,7.76,17.33,17.33Z"/>
        <path class="cls-4" d="M542.79,275.51c0,40.69-32.99,73.67-73.68,73.67h-157.36v-7.54h157.37c36.51,0,66.12-29.61,66.12-66.14s-29.61-66.12-66.12-66.12h-157.37v-7.54h157.36c40.69,0,73.68,32.98,73.68,73.67Z"/>
        <rect class="cls-4" x="399.37" y="201.84" width="3.96" height="7.51"/>
        <path class="cls-9" d="M284.67,349.18h190.43v9.2h-167.66c8.81,7.35,14.44,18.4,14.44,30.77s-5.63,23.42-14.42,30.76h-.01s167.65,.01,167.65,.01v9.2h-190.43v-.11c-.91,.08-1.83,.11-2.76,.11-22.07,0-39.96-17.89-39.96-39.97s17.89-39.97,39.96-39.97c.93,0,1.85,.03,2.76,.1v-.1Z"/>
        <rect class="cls-9" x="471.46" y="349.18" width="39.6" height="9.2"/>
        <rect class="cls-9" x="471.46" y="419.92" width="39.6" height="9.2"/>
        <path class="cls-6" d="M448.69,451.92c0,12.1-9.43,22-21.33,22.76-.49,.03-.98,.05-1.48,.05-6.09,0-11.61-2.38-15.7-6.27-4.38-4.15-7.11-10.03-7.11-16.54s2.73-12.39,7.11-16.54H168.28v-6.27H426.08c12.5,.1,22.62,10.27,22.62,22.81Z"/>
        <path class="cls-10" d="M425.88,474.73H169.56v-6.27h240.62c4.09,3.89,9.61,6.27,15.7,6.27Z"/>
        <path class="cls-10" d="M427.37,441.58v.05h-1.48c.5,0,.99-.02,1.48-.05Z"/>
        <path class="cls-3" d="M475.11,358.39v61.52h-190.43c-16.99,0-30.76-13.77-30.76-30.76s13.77-30.76,30.76-30.76h190.43Z"/>
        <path class="cls-3" d="M511.06,419.91h-39.6v-61.52h39.6c-16.98,0-21.73,13.77-21.73,30.76s4.75,30.76,21.73,30.76Z"/>
        <path class="cls-3" d="M442.62,451.92c0,9.14-7.42,16.55-16.55,16.55-.34,0-.69-.01-1.02-.04H169.3c8.66-.52,9.37-7.71,9.37-16.51s-1.25-16.55-10.39-16.55H426.08c9.13,0,16.55,7.41,16.55,16.55Z"/>
        <path class="cls-3" d="M535.25,275.5c0,36.53-29.61,66.14-66.12,66.14h-157.37s14.8-41.96,14.8-66.14-14.8-66.12-14.8-66.12h157.37c36.51,0,66.12,29.61,66.12,66.12Z"/>
      </g>
    </g>
    <path class="cls-5" d="M215.43,231.72c-41.83,69.51-41.95,92.56,18.09,146.06,1.39,1.24,1.78,3.26,.92,4.91-4.52,8.75-18.17,30.84-18.52,42.42-.08,2.66,2,4.55,4.64,4.22,10.8-1.34,18.97-1.79,9.95-12.31-1.17-1.37-1.29-3.36-.3-4.87,5.56-8.45,22.91-29.63,27.45-37.18,.7-1.17,.75-2.61,.2-3.86-32.61-74.75-19.24-37.81,34.92-57.52,2.74-1,5.62,1.12,5.49,4.03-.37,8.17-1.01,16.17-1.28,21.9-.07,1.57,.76,3.04,2.15,3.78l8.62,4.63c4.04,2.17,8.74,2.73,13.18,1.59,3.95-1.01,7.8-2.16,7.95-5.33,.09-1.88-1.36-3.49-3.19-3.9-3.23-.73-9.18-2.08-12.9-2.92-1.92-.43-3.25-2.16-3.17-4.13,.46-10.61,3.22-18.33,5.59-30.65,1.32-6.86-2.21-28.47-8.97-30.26-18.31-4.83-40.91,12.76-54.33-.61-.92-.92-6.61-15.04-6.89-21.95-.28-6.91,24.02-97.27,49.78-101.29,7.24-1.13,10.22-3.21,8.3-5.65-.93-1.17-11.34-5.69-12.63-5.53-8.05,1.01-6.27,9.59-16.56,3.37-2.01-1.21-4.62-.32-5.4,1.89-.61,1.75-.58,1.83,.14,3.88,1.31,3.7,.94,7.07-.47,9.38-15.58,25.7-37.62,55.83-52.56,75.52-.09,.11-.17,.23-.24,.35Z"/>
  </g>
</svg>