<svg width="40" height="40" viewBox="0 0 40 40" fill="none" xmlns="http://www.w3.org/2000/svg">
<path d="M16.6667 14.1704C16.9603 13.3356 17.54 12.6317 18.3029 12.1833C19.0658 11.7349 19.9628 11.571 20.835 11.7206C21.7072 11.8702 22.4983 12.3237 23.0682 13.0007C23.6381 13.6777 23.9501 14.5345 23.9487 15.4195C23.9487 17.9176 20.2015 19.1667 20.2015 19.1667M20.2498 24.1667H20.2665M16.5 32L18.9333 35.2444C19.2952 35.7269 19.4761 35.9682 19.6979 36.0544C19.8922 36.13 20.1078 36.13 20.3021 36.0544C20.5239 35.9682 20.7048 35.7269 21.0667 35.2444L23.5 32C23.9886 31.3486 24.2329 31.0228 24.5308 30.7742C24.9281 30.4426 25.3972 30.2081 25.9008 30.0892C26.2786 30 26.6857 30 27.5 30C29.8297 30 30.9946 30 31.9134 29.6194C33.1386 29.1119 34.1119 28.1386 34.6194 26.9134C35 25.9946 35 24.8297 35 22.5V13C35 10.1997 35 8.79961 34.455 7.73005C33.9757 6.78924 33.2108 6.02433 32.27 5.54497C31.2004 5 29.8003 5 27 5H13C10.1997 5 8.79961 5 7.73005 5.54497C6.78924 6.02433 6.02433 6.78924 5.54497 7.73005C5 8.79961 5 10.1997 5 13V22.5C5 24.8297 5 25.9946 5.3806 26.9134C5.88807 28.1386 6.86144 29.1119 8.08658 29.6194C9.00544 30 10.1703 30 12.5 30C13.3143 30 13.7214 30 14.0992 30.0892C14.6028 30.2081 15.0719 30.4426 15.4692 30.7742C15.7671 31.0228 16.0114 31.3486 16.5 32Z" stroke="#0868AE" stroke-width="2" stroke-linecap="round" stroke-linejoin="round"/>
</svg>
