<svg width="58" height="58" viewBox="0 0 58 58" fill="none" xmlns="http://www.w3.org/2000/svg">
<rect x="2" y="2" width="54" height="54" rx="27" fill="#F2F4F7"/>
<path d="M38.7225 39.9375C38.7225 38.2415 38.7225 37.3935 38.5132 36.7035C38.0419 35.1499 36.8261 33.9341 35.2725 33.4628C34.5825 33.2535 33.7345 33.2535 32.0385 33.2535H25.9621C24.2661 33.2535 23.4181 33.2535 22.7281 33.4628C21.1745 33.9341 19.9587 35.1499 19.4874 36.7035C19.2781 37.3935 19.2781 38.2415 19.2781 39.9375M34.4691 23.5313C34.4691 26.5516 32.0206 29 29.0003 29C25.98 29 23.5315 26.5516 23.5315 23.5313C23.5315 20.5109 25.98 18.0625 29.0003 18.0625C32.0206 18.0625 34.4691 20.5109 34.4691 23.5313Z" stroke="#475467" stroke-width="2.33333" stroke-linecap="round" stroke-linejoin="round"/>
<rect x="41.25" y="41.25" width="13.5" height="13.5" rx="6.75" fill="#12B76A"/>
<rect x="41.25" y="41.25" width="13.5" height="13.5" rx="6.75" stroke="white" stroke-width="1.5"/>
<rect x="2" y="2" width="54" height="54" rx="27" stroke="#EAECF0" stroke-width="4"/>
</svg>
