<svg width="40" height="40" viewBox="0 0 40 40" fill="none" xmlns="http://www.w3.org/2000/svg">
<path d="M35 16.6668H5M26.6667 3.3335V10.0002M13.3333 3.3335V10.0002M15 26.6668L18.3333 30.0002L25.8333 22.5002M13 36.6668H27C29.8003 36.6668 31.2004 36.6668 32.27 36.1219C33.2108 35.6425 33.9757 34.8776 34.455 33.9368C35 32.8672 35 31.4671 35 28.6668V14.6668C35 11.8666 35 10.4664 34.455 9.39688C33.9757 8.45607 33.2108 7.69116 32.27 7.2118C31.2004 6.66683 29.8003 6.66683 27 6.66683H13C10.1997 6.66683 8.79961 6.66683 7.73005 7.2118C6.78924 7.69116 6.02433 8.45607 5.54497 9.39688C5 10.4664 5 11.8666 5 14.6668V28.6668C5 31.4671 5 32.8672 5.54497 33.9368C6.02433 34.8776 6.78924 35.6425 7.73005 36.1219C8.79961 36.6668 10.1997 36.6668 13 36.6668Z" stroke="#0868AE" stroke-width="2" stroke-linecap="round" stroke-linejoin="round"/>
</svg>
