<svg width="24" height="24" viewBox="0 0 24 24" fill="none" xmlns="http://www.w3.org/2000/svg">
<path d="M16.1111 3C19.6333 3 22 6.3525 22 9.48C22 15.8138 12.1778 21 12 21C11.8222 21 2 15.8138 2 9.48C2 6.3525 4.36667 3 7.88889 3C9.91111 3 11.2333 4.02375 12 4.92375C12.7667 4.02375 14.0889 3 16.1111 3Z" stroke="#FF5E38" stroke-width="2" stroke-linecap="round" stroke-linejoin="round"/>
<path d="M10.6861 11.1417C12.4386 11.1417 12.7077 10.4405 11.814 8.65304C10.8266 6.67812 10.1809 5.34082 7.83936 5.34082C6.62384 5.34082 5.74083 5.66104 4.92102 6.6299C3.84606 7.90031 5.12105 8.37164 6.1922 8.8858C6.6381 9.09983 8.08742 10.1217 8.5018 9.45872C8.83273 8.92924 8.01541 10.8291 7.40967 10.9806C5.65632 11.4189 3.50424 9.53178 6.46076 11.822C9.63948 14.2844 15.1724 15.2587 15.9498 9.99584C16.0597 9.25228 15.96 8.13078 15.6276 7.43558C15.5108 7.19138 14.2118 6.09557 14.2669 5.98536C14.9969 4.52537 18.1874 5.89494 18.6712 6.98798C20.0201 10.0354 19.2463 13.2676 16.5944 15.188C15.7795 15.7781 14.8576 16.008 14.0162 16.5129C13.5655 16.7833 13.1262 17.4818 12.6018 17.5692C11.5692 17.7413 11.5424 18.3966 10.3638 17.8915C8.66185 17.1621 9.10956 15.8076 8.0363 14.615C7.23132 13.7206 6.11523 13.2804 5.78041 12.1085C5.47927 11.0545 3.48892 9.9567 5.10006 9.3871C8.26702 8.26747 11.1799 7.42443 13.5865 10.1749" stroke="#FF5E38" stroke-width="4" stroke-linecap="round"/>
<path d="M14.8756 15.0089C14.0193 15.4509 12.8386 16.2817 11.7961 16.0832C10.5557 15.8469 11.1983 14.4795 11.0084 13.7198" stroke="#FF5E38" stroke-width="4" stroke-linecap="round"/>
</svg>
