<svg width="24" height="24" viewBox="0 0 24 24" fill="none" xmlns="http://www.w3.org/2000/svg">
<path d="M16.1111 3C19.6333 3 22 6.3525 22 9.48C22 15.8138 12.1778 21 12 21C11.8222 21 2 15.8138 2 9.48C2 6.3525 4.36667 3 7.88889 3C9.91111 3 11.2333 4.02375 12 4.92375C12.7667 4.02375 14.0889 3 16.1111 3Z" stroke="#0868AE" stroke-width="2" stroke-linecap="round" stroke-linejoin="round"/>
<path d="M15.8424 12.7531H16.1647" stroke="#0868AE" stroke-width="4" stroke-linecap="round"/>
<path d="M16.8092 12.1085C18.2714 9.0982 17.9834 3.10642 13.5149 6.80893C12.5655 7.59555 12.7523 8.22007 13.2463 9.20806C14.3199 11.3553 11.5482 9.98697 10.7577 9.35129C9.65641 8.46572 9.70244 7.06046 8.57342 6.14649C7.49733 5.27537 6.34863 4.51495 5.42233 6.18229C4.80989 7.28469 4.71082 8.91775 5.52975 9.96002C5.77591 10.2733 6.58438 10.5911 6.96206 10.3897C7.42484 10.1429 6.83714 10.1045 7.32014 9.81679C8.26772 9.25227 10.35 9.76323 11.2948 9.79889C13.0315 9.86442 14.2408 9.91348 15.538 8.77836C15.911 8.452 17.1417 8.24124 16.1647 8.24124" stroke="#0868AE" stroke-width="4" stroke-linecap="round"/>
<path d="M12.2974 16.9425H11.6529" stroke="#0868AE" stroke-width="4" stroke-linecap="round"/>
<path d="M18.0983 5.66309C20.4062 7.61036 19.0777 12.2491 16.7376 13.7915C15.9273 14.3255 14.6438 16.0856 13.6223 15.2954C11.4026 13.5783 9.44932 12.8971 6.63981 12.753C4.88194 12.6629 7.92788 8.22407 8.60924 7.73994C8.83935 7.57644 10.5375 6.08757 10.4712 6.05697C9.44422 5.58296 8.98279 7.24625 9.30749 7.88317C10.1532 9.54209 13.1806 11.5692 12.7988 13.6482C12.4433 15.5835 9.33497 15.7841 8.10793 14.7762C7.21517 14.0428 6.59594 12.9011 5.99527 11.9295C5.68894 11.4339 5.71045 10.6218 5.35073 10.2107C4.55665 9.30317 5.02723 9.32758 5.17169 10.0137C5.30332 10.639 5.85204 11.437 5.85204 11.9653C5.85204 13.157 8.0844 15.9757 9.23588 15.9757C10.2737 15.9757 10.4316 17.3532 11.1874 17.5692C11.5246 17.6655 12.8777 17.3983 12.1542 17.605C11.8356 17.696 12.1304 17.931 12.4407 17.7661C13.0374 17.4491 13.1725 16.846 13.6581 16.4412C15.1035 15.2368 16.5649 15.3525 16.8092 13.3976" stroke="#0868AE" stroke-width="4" stroke-linecap="round"/>
<path d="M7.14111 11.4639C6.2413 11.4639 5.8297 11.4782 5.20749 10.8193C4.64606 10.2249 5.21527 10.3251 5.08216 11.1237C5.04949 11.3197 5.36622 11.4047 5.52976 11.5176C6.70422 12.3285 7.02592 12.5113 8.30487 13.487C9.22872 14.1918 10.3783 15.0873 11.2053 15.9578C11.3068 16.0646 11.5853 16.3411 11.4381 16.3337C11.2017 16.3219 11.0333 16.0861 10.8472 15.9399C9.61305 14.9702 8.57304 13.7867 7.19483 13.0036C6.59982 12.6655 5.96529 12.544 5.52976 12.1084" stroke="#0868AE" stroke-width="4" stroke-linecap="round"/>
<path d="M16.487 15.0089C15.1675 16.4933 15.2173 16.9361 13.2643 17.5871" stroke="#0868AE" stroke-width="4" stroke-linecap="round"/>
<path d="M14.2311 15.9757C12.9974 17.4835 13.1014 19.1054 11.0084 17.9093" stroke="#0868AE" stroke-width="4" stroke-linecap="round"/>
</svg>
