<svg width="40" height="40" viewBox="0 0 40 40" fill="none" xmlns="http://www.w3.org/2000/svg">
<path d="M9.2 4.40016L6.6 7.86683C6.08503 8.55346 5.82754 8.89677 5.83351 9.18415C5.83871 9.43423 5.95597 9.66875 6.15292 9.82295C6.37923 10.0002 6.80838 10.0002 7.66667 10.0002H32.3333C33.1916 10.0002 33.6208 10.0002 33.8471 9.82295C34.044 9.66875 34.1613 9.43423 34.1665 9.18415C34.1725 8.89677 33.915 8.55346 33.4 7.86683L30.8 4.40016M9.2 4.40016C9.49333 4.00905 9.64 3.8135 9.82587 3.67246C9.9905 3.54754 10.1769 3.45432 10.3756 3.39757C10.6 3.3335 10.8444 3.3335 11.3333 3.3335H28.6667C29.1556 3.3335 29.4 3.3335 29.6244 3.39757C29.8231 3.45432 30.0095 3.54754 30.1741 3.67246C30.36 3.8135 30.5067 4.00905 30.8 4.40016M9.2 4.40016L6.06667 8.57794C5.6709 9.10563 5.47301 9.36947 5.3325 9.66003C5.20781 9.91786 5.11687 10.1907 5.06192 10.4718C5 10.7885 5 11.1183 5 11.7779L5 31.3335C5 33.2003 5 34.1338 5.36331 34.8468C5.68289 35.474 6.19282 35.9839 6.82003 36.3035C7.53307 36.6668 8.46649 36.6668 10.3333 36.6668L29.6667 36.6668C31.5335 36.6668 32.4669 36.6668 33.18 36.3035C33.8072 35.9839 34.3171 35.474 34.6367 34.8468C35 34.1338 35 33.2003 35 31.3335V11.7779C35 11.1183 35 10.7885 34.9381 10.4718C34.8831 10.1907 34.7922 9.91786 34.6675 9.66004C34.527 9.36948 34.3291 9.10563 33.9333 8.57794L30.8 4.40016M26.6667 16.6668C26.6667 18.4349 25.9643 20.1306 24.714 21.3809C23.4638 22.6311 21.7681 23.3335 20 23.3335C18.2319 23.3335 16.5362 22.6311 15.286 21.3809C14.0357 20.1306 13.3333 18.4349 13.3333 16.6668" stroke="#0868AE" stroke-width="2" stroke-linecap="round" stroke-linejoin="round"/>
</svg>
