<svg width="30" height="30" viewBox="0 0 30 30" fill="none" xmlns="http://www.w3.org/2000/svg">
<path d="M11.25 13.75L13.75 16.25L19.375 10.625M14.9914 6.41977C12.4922 3.498 8.32468 2.71205 5.19337 5.38752C2.06205 8.06298 1.62121 12.5362 4.08025 15.7005C5.93761 18.0906 11.2141 22.8887 13.685 25.0936C14.1392 25.4989 14.3663 25.7016 14.6323 25.7814C14.8632 25.8506 15.1197 25.8506 15.3506 25.7814C15.6165 25.7016 15.8436 25.4989 16.2979 25.0936C18.7688 22.8887 24.0453 18.0906 25.9026 15.7005C28.3617 12.5362 27.9746 8.03484 24.7895 5.38752C21.6044 2.7402 17.4906 3.498 14.9914 6.41977Z" stroke="#FF5E38" stroke-width="2" stroke-linecap="round" stroke-linejoin="round"/>
</svg>
