<svg width="46" height="46" viewBox="0 0 46 46" fill="none" xmlns="http://www.w3.org/2000/svg">
<rect x="3" y="3" width="40" height="40" rx="20" fill="#F4EBFF"/>
<g clip-path="url(#clip0_456_120484)">
<path d="M16.7493 31.3334V27.1667M16.7493 18.8334V14.6667M14.666 16.75H18.8327M14.666 29.25H18.8327M23.8327 15.5L22.3875 19.2574C22.1525 19.8684 22.035 20.1739 21.8523 20.4309C21.6903 20.6587 21.4913 20.8577 21.2636 21.0196C21.0066 21.2024 20.7011 21.3199 20.0901 21.5549L16.3327 23L20.0901 24.4452C20.7011 24.6802 21.0066 24.7977 21.2636 24.9804C21.4913 25.1424 21.6903 25.3414 21.8523 25.5691C22.035 25.8261 22.1525 26.1316 22.3875 26.7426L23.8327 30.5L25.2778 26.7426C25.5128 26.1316 25.6303 25.8261 25.8131 25.5691C25.975 25.3414 26.174 25.1424 26.4018 24.9804C26.6588 24.7977 26.9643 24.6802 27.5753 24.4452L31.3327 23L27.5753 21.5549C26.9643 21.3199 26.6588 21.2024 26.4018 21.0196C26.174 20.8577 25.975 20.6587 25.8131 20.4309C25.6303 20.1739 25.5128 19.8684 25.2778 19.2574L23.8327 15.5Z" stroke="#7F56D9" stroke-width="1.66667" stroke-linecap="round" stroke-linejoin="round"/>
</g>
<rect x="3" y="3" width="40" height="40" rx="20" stroke="#F9F5FF" stroke-width="6"/>
<defs>
<clipPath id="clip0_456_120484">
<rect width="20" height="20" fill="white" transform="translate(13 13)"/>
</clipPath>
</defs>
</svg>
