<?xml version="1.0" encoding="UTF-8"?>
<svg id="Calque_1" data-name="Calque 1" xmlns="http://www.w3.org/2000/svg" viewBox="0 0 566.93 566.93">
  <defs>
    <style>
      .cls-1 {
        fill: #575756;
      }

      .cls-2 {
        fill: #f07f4e;
      }

      .cls-3 {
        fill: #f9b017;
      }

      .cls-4 {
        fill: #dadada;
      }

      .cls-5 {
        fill: #0868ae;
      }

      .cls-6 {
        fill: #3c3c3b;
      }

      .cls-7 {
        fill: #e94a34;
      }

      .cls-8 {
        fill: #1b9690;
      }

      .cls-9 {
        fill: #1d1d1b;
      }
    </style>
  </defs>
  <circle class="cls-3" cx="282.34" cy="227.07" r="138.9"/>
  <circle class="cls-9" cx="414.74" cy="199.76" r="61.18"/>
  <path class="cls-2" d="M372.79,119.42c0,10.58-8.58,19.16-19.16,19.16H200.84v-6.27h138.62c-3.1-3.4-4.99-7.93-4.99-12.89s1.9-9.5,5-12.9H200.84v-6.26h152.79c10.58,0,19.16,8.57,19.16,19.16Z"/>
  <path class="cls-4" d="M366.52,119.42c0,7.12-5.77,12.89-12.89,12.89H200.84c7.12,0,6.74-5.77,6.74-12.89s.38-12.89-6.74-12.89h152.79c7.12,0,12.89,5.77,12.89,12.89Z"/>
  <path class="cls-5" d="M475.93,199.76c0,33.79-27.4,61.18-61.19,61.18H229.25v-6.26h158.5c-20.25-9.97-34.19-30.82-34.19-54.92s13.94-44.95,34.19-54.92H229.25v-6.26h185.49c33.79,0,61.19,27.39,61.19,61.18Z"/>
  <path class="cls-8" d="M431.99,267.21h-169.98c6.01,5,9.84,12.54,9.84,20.97s-3.83,15.96-9.83,20.96h169.97v6.27H246.5v-.07c-.62,.05-1.25,.07-1.88,.07-15.04,0-27.23-12.19-27.23-27.23s12.19-27.24,27.23-27.24c.63,0,1.26,.02,1.88,.07v-.07h185.49v6.27Z"/>
  <path class="cls-7" d="M384.87,338.22c0,12.1-9.43,22-21.33,22.76-.49,.03-.98,.05-1.48,.05-6.09,0-11.61-2.38-15.7-6.27-4.38-4.15-7.11-10.03-7.11-16.54s2.73-12.39,7.11-16.54H104.46v-6.27H362.25c12.5,.1,22.62,10.27,22.62,22.81Z"/>
  <path class="cls-9" d="M362.06,361.03H105.74v-6.27h240.62c4.09,3.89,9.61,6.27,15.7,6.27Z"/>
  <path class="cls-9" d="M363.54,360.98v.05h-1.48c.5,0,.99-.02,1.48-.05Z"/>
  <circle class="cls-1" cx="165.96" cy="136.77" r="22.4"/>
  <path class="cls-4" d="M431.99,309.14H246.5c-11.58,0-20.96-9.39-20.96-20.96s9.39-20.96,20.96-20.96h185.49c-11.58,0-14.81,9.39-14.81,20.96s3.24,20.96,14.81,20.96Z"/>
  <circle class="cls-4" cx="414.74" cy="199.76" r="54.92"/>
  <path class="cls-6" d="M160.78,164.34c-31.6,52.51-31.69,69.91,13.66,110.32,1.05,.94,1.34,2.46,.7,3.71-3.42,6.61-13.73,26.32-13.99,35.06-.06,2.01,1.51,3.43,3.51,3.19,8.16-1.01,14.33-1.35,7.52-9.3-.89-1.04-.98-2.54-.23-3.68,4.2-6.38,17.3-25.4,20.73-31.1,.53-.88,.58-1.98,.15-2.91-16.56-36.15-14.53-21,26.38-35.89,2.07-.75,4.25,.84,4.14,3.05-.28,6.17-.77,16.74-.96,21.08-.05,1.19,.58,2.3,1.62,2.86l6.51,3.5c3.05,1.64,6.6,2.06,9.96,1.2,2.98-.76,5.9-1.63,6-4.03,.06-1.42-1.02-2.63-2.41-2.95-2.44-.55-6.93-1.57-9.74-2.21-1.45-.33-2.45-1.63-2.39-3.12,.34-8.01,2.43-25.93,4.22-35.24,1-5.18-1.67-11.69-6.78-13.04-13.83-3.65-30.9,9.64-41.04-.46-.69-.69-4.99-6.07-5.2-11.29-.21-5.22,18.14-88.58,37.6-91.61,5.47-.85,7.72-2.43,6.27-4.27-.7-.89-8.56-4.3-9.54-4.18-6.08,.76-4.74,7.24-12.51,2.54-1.52-.92-3.49-.24-4.08,1.43-.46,1.32-.44,1.38,.11,2.93,.99,2.79,.71,5.34-.35,7.09-11.77,19.41-28.42,42.17-39.7,57.04-.07,.09-.13,.17-.18,.27Z"/>
  <path class="cls-4" d="M469.65,199.76c0,30.33-24.59,54.93-54.91,54.93H229.25s12.29-34.85,12.29-54.93-12.29-54.91-12.29-54.91h185.49c30.32,0,54.91,24.59,54.91,54.91Z"/>
  <circle class="cls-1" cx="165.96" cy="136.77" r="22.4"/>
  <path class="cls-6" d="M160.78,164.34c-31.6,52.51-31.69,69.91,13.66,110.32,1.05,.94,1.34,2.46,.7,3.71-3.42,6.61-13.73,26.32-13.99,35.06-.06,2.01,1.51,3.43,3.51,3.19,8.16-1.01,14.33-1.35,7.52-9.3-.89-1.04-.98-2.54-.23-3.68,4.2-6.38,17.3-25.4,20.73-31.1,.53-.88,.58-1.98,.15-2.91-16.56-36.15-14.53-21,26.38-35.89,2.07-.75,4.25,.84,4.14,3.05-.28,6.17-.77,16.74-.96,21.08-.05,1.19,.58,2.3,1.62,2.86l6.51,3.5c3.05,1.64,6.6,2.06,9.96,1.2,2.98-.76,5.9-1.63,6-4.03,.06-1.42-1.02-2.63-2.41-2.95-2.44-.55-6.93-1.57-9.74-2.21-1.45-.33-2.45-1.63-2.39-3.12,.34-8.01,2.43-25.93,4.22-35.24,1-5.18-1.67-11.69-6.78-13.04-13.83-3.65-30.9,9.64-41.04-.46-.69-.69-4.99-6.07-5.2-11.29-.21-5.22,18.14-88.58,37.6-91.61,5.47-.85,7.72-2.43,6.27-4.27-.7-.89-8.56-4.3-9.54-4.18-6.08,.76-4.74,7.24-12.51,2.54-1.52-.92-3.49-.24-4.08,1.43-.46,1.32-.44,1.38,.11,2.93,.99,2.79,.71,5.34-.35,7.09-11.77,19.41-28.42,42.17-39.7,57.04-.07,.09-.13,.17-.18,.27Z"/>
  <path class="cls-9" d="M167.97,436.61c3.25,1.31,5.62,1.97,7.7,3.14,8.78,4.95,13.59,14.67,11.95,23.72-1.51,8.32-11.39,16.5-21.46,18.67-15.42,3.32-30.96,1.61-46.46,1.66-4.1,.01-8.22-.7-12.3-1.26-.98-.14-1.86-1.01-2.79-1.54l.3-1.67c3.82,.19,7.63,.37,12.21,.6v-76.99c-2.35-.59-5.02-1.25-9.1-2.27,2.22-1.24,3.12-2.15,4.06-2.2,12.63-.63,25.28-1.62,37.9-1.45,5.88,.08,11.94,1.94,17.56,3.98,13.36,4.85,15.57,24.2,4.83,31.72-1.35,.95-2.5,2.19-4.42,3.9Zm-34.41,3.16c0,6.43,.1,11.74-.03,17.06-.13,5.36-.7,10.72-.72,16.08-.03,7.27,.21,7.37,7.25,7.44,1.95,.02,3.91,.02,5.86,.02,17.87,.02,23.93-6.22,23.11-23.79-.45-9.61-5.56-15.8-14.9-16.68-6.94-.65-13.99-.13-20.57-.13Zm-1.27-16.25c-.36,14.84-.12,12.66,10.17,12.77,.73,0,1.47,.09,2.19,0,6.65-.93,12.77-2.97,17.23-8.41,7.11-8.67,3.74-21.99-6.81-25.43-4.5-1.46-9.44-1.67-14.21-2.2-4.1-.46-6.31,1.46-6.69,5.74-.59,6.78-1.44,13.53-1.88,17.54Z"/>
  <path class="cls-9" d="M449.81,482.05c6.79-3.15,5.79-6.41,3.51-10.41-3.23-5.67-5.87-11.68-8.85-17.73-7.85,2.91-5.12,9.16-5.88,14.26-.9,6.07,1.16,10.15,7.02,13.01-9.26,1.75-18.14,.72-27.08,.89,.1-1.3,.02-2.1,.19-2.16,7.64-2.61,9.12-8.98,9.11-15.77-.03-18.3-.36-36.59-.65-54.88-.05-3.4-.66-6.53-5.43-5.74-.69,.11-1.55-.84-2.92-1.65,1.18-.9,1.78-1.61,2.53-1.89,4.26-1.57,8.64-2.87,12.83-4.6,2.51-1.03,3.76-.48,4.06,2.08,.19,1.69,.04,3.41,.04,5.12v49.07c7.82-3.83,13.16-9.34,17.95-15.26,3.26-4.02,2.6-5.15-4.52-9.58,8.59-.7,15.54-2.08,22.92-1.67-.29,1.43-.28,2.22-.48,2.28-9.14,2.59-13.24,11.12-19.7,16.85-1.02,.9-1.41,3.79-.76,5.09,4.03,8.06,8.14,16.13,12.91,23.76,1.65,2.64,5.35,3.96,7.96,6.08,.75,.61,1.08,1.86,1.33,2.88,.05,.22-1.07,1.03-1.66,1.04-6.5,.15-13.01,.22-19.52,.24-.88,0-1.76-.45-4.93-1.31Z"/>
  <path class="cls-9" d="M227.63,481.1c0-1.89-.25-3.82,.04-5.67,3.28-21.38,2.43-42.75,.09-64.15-.51-4.61-1-8.77-8.11-9.01,2.06-1.84,2.96-3.34,4.05-3.49,4.57-.61,9.19-.86,13.8-1.14,2.9-.18,2.91,1.93,2.84,3.96-.26,7.79-.55,15.59-.79,23.38-.06,1.86,0,3.72,0,5.66,4.23-1.41,7.81-3.23,11.55-3.66,2.87-.33,6.52,.25,8.82,1.86,16.44,11.54,15.22,42.28-1.86,52.56-6.69,4.03-11.56,3.19-16.66-2.88-4.03-4.79-4.2-4.76-8.6,.12-1.05,1.16-2.36,2.09-3.55,3.13-.53-.23-1.06-.46-1.59-.68Zm33.95-30.01c-.16-2.91-.3-5.83-.48-8.74-.06-.97-.2-1.94-.38-2.89-1.3-6.78-4.35-9.35-10.29-8.72-5.97,.63-10.73,5.45-10.52,11.07,.29,7.73,.67,15.47,1.45,23.16,.34,3.31,1.25,6.82,2.9,9.66,1.33,2.28,4.16,5.1,6.31,5.09,2.06,0,4.81-2.98,6.04-5.3,3.81-7.23,5.31-15.12,4.97-23.33Z"/>
  <path class="cls-9" d="M389.48,482.33c-12.6,.81-24.78-11.82-25.6-26.41-.89-16.02,12.94-28.47,24.89-29.63,13.51-1.31,28.08,12.19,29.16,26.34,1.14,14.98-11.95,28.65-28.45,29.71Zm16.43-27.57c-.83-4.93-1.41-10.51-2.77-15.9-1.59-6.32-7.64-7.29-12.67-8.31-4.8-.97-7.2,3.3-9.16,7.02-5.71,10.85-5.4,22.06-1.51,33.34,2.16,6.26,4.66,7.98,10.62,7.94,7.53-.06,11.37-2.13,13.02-8.23,1.32-4.89,1.61-10.06,2.47-15.85Z"/>
  <path class="cls-9" d="M332.63,482.26c-13.19,.92-24.9-10.33-26.37-24.56-1.87-18.12,13.01-30.06,24.32-31.4,13.64-1.62,28.54,12.21,29.46,26.77,.92,14.44-11.92,28.12-27.42,29.2Zm15.48-26.96c-.75-4.87-1.21-10.21-2.46-15.35-1.28-5.28-7.49-9.77-13.22-9.68-5.06,.09-7.4,4.05-9.4,8.05-5.34,10.67-4.77,21.62-1.16,32.56,2.14,6.49,4.89,8.17,11.28,7.97,7.6-.24,11.26-2.7,12.81-9.38,1.04-4.46,1.4-9.08,2.14-14.16Z"/>
  <path class="cls-9" d="M272.48,401.34c6.95-2.28,12.84-4.35,18.83-6.03,.95-.27,3.05,1,3.48,2.04,.6,1.45,.1,3.34,.12,5.05,.26,22.65,.47,45.31,.82,67.96,.1,6.48,.81,6.92,8.15,7.53,.79,.07,2.19,.95,2.14,1.27-.16,1.05-.65,2.56-1.42,2.88-1.25,.51-2.84,.33-4.27,.21-8.5-.7-16.99-1.35-25.43,.71-.74,.18-1.68-.48-2.93-2.05,1.51-.66,2.98-1.69,4.55-1.9,4.3-.58,6.6-2.75,6.76-7.14,.22-6.06,.7-12.13,.66-18.19-.09-14.12-.43-28.24-.66-42.37-.12-7.42-.12-7.39-7.5-8.45-.84-.12-1.61-.73-3.29-1.53Z"/>
  <path class="cls-9" d="M191.95,481c.56-.5,1.15-1.49,1.88-1.61,6.9-1.14,8.11-6.04,7.99-11.84-.19-9.47-.46-18.94-.62-28.42-.07-3.9-.45-7.35-5.6-7.48-.67-.02-1.32-1.12-3.05-2.69,7.27-1.03,13.36-2.02,19.49-2.59,.69-.06,2.29,2.18,2.31,3.37,.16,13.1,.08,26.2,.11,39.3,0,2.17-.44,4.82,.62,6.37,.92,1.36,3.71,1.38,5.57,2.22,.74,.33,1.77,1.4,1.66,1.92-.16,.74-1.22,1.8-1.93,1.83-9.31,.32-18.63,.48-27.94,.65-.1,0-.2-.41-.48-1.01Z"/>
  <circle class="cls-3" cx="205.22" cy="410.95" r="9.13"/>
  <path class="cls-4" d="M378.8,338.22c0,9.14-7.42,16.55-16.55,16.55-.34,0-.69-.01-1.02-.04H105.48c8.66-.52,9.37-7.71,9.37-16.51s-1.25-16.55-10.39-16.55H362.25c9.13,0,16.55,7.41,16.55,16.55Z"/>
</svg>