<?xml version="1.0" encoding="utf-8"?>
<!-- Generator: Adobe Illustrator 26.1.0, SVG Export Plug-In . SVG Version: 6.00 Build 0)  -->
<svg version="1.1" id="Calque_1" xmlns="http://www.w3.org/2000/svg" xmlns:xlink="http://www.w3.org/1999/xlink" x="0px" y="0px"
	 viewBox="0 0 786.4 193" style="enable-background:new 0 0 786.4 193;" xml:space="preserve">
<style type="text/css">
	.st0{fill:#0868AE;}
	.st1{fill:#1B9690;}
	.st2{fill:#E94A34;}
	.st3{fill:#F9B017;}
</style>
<path class="st0" d="M157.1,53c0,7.2-1.1,13.3-3.2,18.2s-4.9,9-8.5,12.2s-7.5,5.7-12.1,7.5c-4.5,1.8-9.2,3.1-14,3.9
	c6,2.2,10.9,5,14.7,8.3c3.8,3.4,6.8,6.9,8.9,10.5c2.2,3.6,3.6,7.2,4.4,10.7c0.8,3.5,1.2,6.4,1.2,8.8c0,5.9-0.9,11-2.6,15.4
	c-1.7,4.4-4,8.1-7,11.3c-2.9,3.1-6.4,5.7-10.3,7.8c-3.9,2-8.1,3.7-12.5,4.9s-9,2-13.6,2.5s-9.2,0.7-13.6,0.7c-1.5,0-3,0-4.5-0.1
	s-3.4-0.1-5.7-0.2c-2.3-0.1-5.1-0.3-8.5-0.5s-7.8-0.5-13.1-0.9s-11.8-0.9-19.4-1.5c-7.6-0.6-16.7-1.3-27.2-2l28.4-17.5l8.3-124.1
	L16.8,8.7C31.2,8.9,43.9,9,54.8,9.2C65.8,9.3,75,9.5,82.5,9.6c8.8,0.2,16.3,0.3,22.5,0.5c6.1,0,12.3,0.9,18.5,2.8
	c6.2,1.8,11.8,4.6,16.8,8.2s9,8.1,12.2,13.4S157.2,46,157.1,53L157.1,53z M126.2,53.7c0-0.7-0.1-1.9-0.3-3.7c-0.2-1.8-0.7-3.8-1.6-6
	c-0.9-2.2-2.3-4.6-4.2-7c-1.9-2.5-4.5-4.7-7.9-6.8c-3.4-2-7.6-3.7-12.7-5.1S88.1,23,80.7,22.9c-3.9,0-7.8,0.2-11.5,0.7v64.9
	c2,0.2,4.1,0.2,6.1,0.2h5.4c7.5,0,13.8-0.7,19-2.2c5.2-1.5,9.4-3.4,12.8-5.8s6-4.9,7.8-7.7s3.2-5.5,4-8.1c0.9-2.6,1.4-4.9,1.5-7
	C126.1,56,126.2,54.5,126.2,53.7L126.2,53.7z M81.4,101.3h-5.9c-2.2,0-4.3,0.1-6.3,0.2V158c3.5,0.6,6.8,1.1,9.7,1.3
	c3,0.2,6,0.4,8.9,0.4c4,0,8-0.5,11.9-1.4c4-0.9,7.5-2.5,10.7-4.7s5.7-5.2,7.7-9s2.9-8.5,2.9-14.1c0-2.9-0.7-6.1-2-9.5
	c-1.3-3.4-3.5-6.6-6.6-9.5c-3-2.9-7.1-5.3-12.2-7.3S88.9,101.3,81.4,101.3L81.4,101.3z"/>
<path class="st1" d="M166.8,174.8l18.4-14.4l-4-81l-21.7-14.2l50.5-8.6l-9,94.1l25.2,15.7L166.8,174.8L166.8,174.8z"/>
<path class="st0" d="M289,176.3c-4.2,0-8.1-0.7-11.7-2s-6.8-3.1-9.6-5.4c-2.8-2.3-5.3-4.9-7.3-7.9c-2.1-3-3.7-6.2-4.9-9.7
	l-11.9,27.4L239,38.5L209.5,27l62.2-7c-1.6,11.4-2.9,21.6-4,30.6c-1.1,9-2,17-2.7,24c4.2-6.3,9.4-11.5,15.4-15.4
	c6.1-3.9,13-5.9,20.8-5.9c5.8,0,10.8,0.7,15.1,2.1s8,3.3,11.1,5.8c3.1,2.5,5.6,5.4,7.6,8.7s3.6,6.9,4.8,10.6c1.2,3.8,2,7.6,2.5,11.6
	c0.5,4,0.7,7.9,0.7,11.9c0,10.6-1.2,20.3-3.5,29.2c-2.3,8.9-5.7,16.5-10.2,23s-10.1,11.4-16.9,15S297.9,176.3,289,176.3L289,176.3z
	 M290.7,71.3c-3.3,0-6.4,0.8-9.3,2.5c-2.9,1.6-5.5,3.9-7.9,6.7c-2.4,2.8-4.5,6.1-6.3,9.8c-1.8,3.7-3.4,7.6-4.6,11.8
	c-0.2,2.3-0.3,4.2-0.3,5.8c-0.1,1.6-0.1,3-0.1,4c-0.1,1.3-0.1,2.4,0,3.3c0,9.1,0.7,16.6,2,22.5c1.3,6,3.1,10.7,5.4,14.3
	s4.9,6.1,7.9,7.5c3,1.5,6.2,2.2,9.5,2.2s6.7-1.2,10.1-3.8c3.4-2.5,6.6-6.1,9.5-10.8c2.9-4.7,5.2-10.4,7-17
	c1.8-6.6,2.8-14.2,2.8-22.5c0-5.9-0.7-11.1-2.1-15.6c-1.4-4.5-3.3-8.3-5.7-11.4c-2.4-3-5.1-5.4-8.2-6.9
	C297.2,72.1,294,71.3,290.7,71.3L290.7,71.3z"/>
<path class="st2" d="M383.7,159l23.5,9.4l-58.8,5.8l21.1-16.5l-3.6-126.8L338.7,19l59.4-7.9L383.7,159L383.7,159z"/>
<path class="st3" d="M412.8,114.7c0-8.8,1.4-16.9,4.2-24.4c2.8-7.5,6.7-14,11.6-19.4c5-5.5,10.9-9.8,17.7-12.9
	c6.8-3.1,14.3-4.6,22.5-4.6s15.1,1.5,21.7,4.4s12.3,7.1,17.1,12.4c4.8,5.3,8.7,11.7,11.6,19.1c2.9,7.4,4.6,15.6,5.2,24.6
	c0.6,9.6-0.4,18.3-3,26.1s-6.3,14.4-11.2,19.8c-4.9,5.4-10.8,9.6-17.7,12.6s-14.3,4.5-22.2,4.5s-15-1.4-21.9-4.2
	c-6.9-2.8-13-6.8-18.3-12.1c-5.3-5.3-9.5-11.8-12.6-19.5C414.4,133.5,412.8,124.6,412.8,114.7L412.8,114.7z M441.7,116.7
	c0,6.9,1,13.1,2.9,18.7c2,5.6,4.6,10.3,7.9,14.1c3.3,3.9,7.1,6.9,11.4,9c4.3,2.1,8.8,3.2,13.6,3.2s9.2-1,13.4-3.1
	c4.2-2.1,7.8-5,10.8-8.8c3.1-3.8,5.4-8.4,7.2-13.7c1.7-5.3,2.6-11.2,2.6-17.7s-0.9-12.5-2.6-18.1s-4.1-10.6-7.2-14.9
	c-3.1-4.2-6.8-7.5-11-10c-4.2-2.4-8.8-3.6-13.8-3.6c-4.5,0-8.8,1-13,3c-4.2,2-7.9,5-11.2,8.9c-3.3,3.9-5.9,8.6-7.9,14.1
	C442.7,103.4,441.7,109.7,441.7,116.7L441.7,116.7z"/>
<path class="st1" d="M537.8,114.7c0-8.8,1.4-16.9,4.2-24.4c2.8-7.5,6.7-14,11.6-19.4c5-5.5,10.9-9.8,17.7-12.9
	c6.8-3.1,14.3-4.6,22.5-4.6s15.1,1.5,21.7,4.4s12.3,7.1,17.1,12.4c4.8,5.3,8.7,11.7,11.6,19.1c2.9,7.4,4.6,15.6,5.2,24.6
	c0.6,9.6-0.4,18.3-3,26.1s-6.3,14.4-11.2,19.8c-4.9,5.4-10.8,9.6-17.7,12.6c-6.8,3-14.3,4.5-22.2,4.5s-15-1.4-21.9-4.2
	c-6.9-2.8-13-6.8-18.3-12.1s-9.5-11.8-12.6-19.5C539.4,133.5,537.8,124.6,537.8,114.7L537.8,114.7z M566.7,116.7
	c0,6.9,1,13.1,2.9,18.7c1.9,5.6,4.6,10.3,7.9,14.1c3.3,3.9,7.1,6.9,11.4,9c4.3,2.1,8.8,3.2,13.6,3.2s9.2-1,13.4-3.1
	c4.2-2.1,7.8-5,10.8-8.8c3.1-3.8,5.4-8.4,7.2-13.7c1.7-5.3,2.6-11.2,2.6-17.7s-0.9-12.5-2.6-18.1s-4.1-10.6-7.2-14.9s-6.8-7.5-11-10
	c-4.2-2.4-8.8-3.6-13.8-3.6c-4.5,0-8.8,1-13,3c-4.2,2-7.9,5-11.2,8.9c-3.3,3.9-5.9,8.6-7.9,14.1
	C567.7,103.4,566.7,109.7,566.7,116.7L566.7,116.7z"/>
<path class="st2" d="M775.6,69.3l-24.3,8.5l-50,47.5c3.1,3.8,6.1,7.1,9,9.9c2.9,2.7,5.6,5.1,8.2,7c2.6,2,5,3.5,7.2,4.7
	s4.3,2.1,6.2,2.7c4.3,1.5,8.2,2,11.7,1.4c2.5-0.2,5.2-0.9,8.1-2.4c2.5-1.2,5.4-3,8.6-5.6c3.2-2.6,6.7-6.3,10.4-11.1
	c-1.4,8.7-3.5,15.9-6.2,21.7c-2.7,5.8-5.5,10.3-8.5,13.7c-3,3.4-5.8,5.8-8.5,7.2s-4.8,2.1-6.2,2.1c-4.1-0.6-8.6-2.5-13.5-5.5
	c-2.1-1.2-4.4-2.9-7-4.8c-2.5-2-5.2-4.3-8.1-7c-2.9-2.7-5.9-6-9.1-9.7c-3.2-3.7-6.5-8-9.9-12.9l0.2,22.5l15.6,13h-58.7l18.1-14.7
	l8.3-130.8l-26.2-13l41.6-6.9l0.8,106.2l32.9-42l-13.5-14.9L775.6,69.3L775.6,69.3z"/>
<path class="st3" d="M206,30.7c0,2-0.4,3.9-1.2,5.7s-1.9,3.3-3.3,4.7c-1.4,1.4-3,2.4-4.8,3.2s-3.7,1.1-5.7,1.1
	c-2.1,0-4.1-0.4-5.9-1.1c-1.8-0.8-3.4-1.8-4.7-3.2c-1.3-1.4-2.4-2.9-3.2-4.7c-0.8-1.8-1.2-3.7-1.2-5.7s0.4-4,1.2-5.8
	c0.8-1.8,1.9-3.3,3.2-4.7s2.9-2.4,4.7-3.2s3.8-1.1,5.9-1.1c2,0,3.9,0.4,5.7,1.1c1.8,0.8,3.4,1.8,4.8,3.2c1.4,1.3,2.5,2.9,3.3,4.7
	C205.6,26.7,206,28.7,206,30.7z"/>
</svg>
