<?xml version="1.0" encoding="utf-8"?>
<!-- Generator: Adobe Illustrator 26.1.0, SVG Export Plug-In . SVG Version: 6.00 Build 0)  -->
<svg version="1.1" id="Calque_1" xmlns="http://www.w3.org/2000/svg" xmlns:xlink="http://www.w3.org/1999/xlink" x="0px" y="0px"
	 viewBox="0 0 336.8 336.8" style="enable-background:new 0 0 336.8 336.8;" xml:space="preserve">
<style type="text/css">
	.st0{fill:#F9B017;}
	.st1{fill:#575756;}
	.st2{clip-path:url(#SVGID_00000065042444320580511780000009516048099299882686_);}
	.st3{fill:#F07F4E;}
	.st4{fill:#DADADA;}
	.st5{fill:#0868AE;}
	.st6{fill:#1B9690;}
	.st7{fill:#E94A34;}
	.st8{fill:#1D1D1B;}
	.st9{fill:#3C3C3B;}
</style>
<g>
	<circle class="st0" cx="168.4" cy="168.4" r="168.4"/>
	<circle class="st1" cx="107.2" cy="80.2" r="29.6"/>
	<g>
		<g>
			<g>
				<defs>
					<circle id="SVGID_1_" cx="168.4" cy="168.4" r="168.4"/>
				</defs>
				<clipPath id="SVGID_00000175318086617877558990000014877662655073743258_">
					<use xlink:href="#SVGID_1_"  style="overflow:visible;"/>
				</clipPath>
				<g style="clip-path:url(#SVGID_00000175318086617877558990000014877662655073743258_);">
					<g>
						<rect x="379.8" y="53.5" class="st3" width="20.4" height="20.4"/>
						<path class="st3" d="M402.2,61.1c0,14.2-11.5,25.8-25.8,25.8H171.1v-8.4h186.3c-4.2-4.6-6.7-10.7-6.7-17.3
							c0-6.7,2.5-12.8,6.7-17.3H171v-8.4h205.4C390.7,35.3,402.2,46.8,402.2,61.1L402.2,61.1z"/>
						<path class="st4" d="M393.8,61.1c0,9.6-7.8,17.3-17.3,17.3H171.1c9.6,0,9.1-7.8,9.1-17.3s0.5-17.3-9.1-17.3h205.4
							C386,43.7,393.8,51.5,393.8,61.1z"/>
						<path class="st5" d="M427.7,160.5c0,40.7-33,73.7-73.7,73.7H196.7v-7.5h157.4c36.5,0,66.1-29.6,66.1-66.1
							s-29.6-66.1-66.1-66.1H196.7V87h157.4C394.7,86.8,427.7,119.8,427.7,160.5z"/>
						<rect x="284.3" y="86.8" class="st5" width="4" height="7.5"/>
						<path class="st6" d="M169.6,234.2H360v9.2H192.4c8.8,7.4,14.4,18.4,14.4,30.8s-5.6,23.4-14.4,30.8l0,0h167.7v9.2H169.6v-0.1
							c-0.9,0.1-1.8,0.1-2.8,0.1c-22.1,0-40-17.9-40-40s17.9-40,40-40C167.7,234.2,168.7,234.2,169.6,234.2L169.6,234.2L169.6,234.2
							z"/>
						<rect x="356.4" y="234.2" class="st6" width="39.6" height="9.2"/>
						<rect x="356.4" y="304.9" class="st6" width="39.6" height="9.2"/>
						<path class="st7" d="M333.6,336.9c0,12.1-9.4,22-21.3,22.8c-0.5,0-1,0-1.5,0c-6.1,0-11.6-2.4-15.7-6.3
							c-4.4-4.1-7.1-10-7.1-16.5s2.7-12.4,7.1-16.5H53.2v-6.3H311C323.5,314.2,333.6,324.4,333.6,336.9L333.6,336.9z"/>
						<path class="st8" d="M310.8,359.7H54.5v-6.3h240.6C299.2,357.3,304.7,359.7,310.8,359.7z"/>
						<path class="st8" d="M312.3,326.6L312.3,326.6h-1.5C311.3,326.6,311.8,326.6,312.3,326.6z"/>
						<path class="st4" d="M360,243.4v61.5H169.6c-17,0-30.8-13.8-30.8-30.8s13.8-30.8,30.8-30.8L360,243.4L360,243.4z"/>
						<path class="st4" d="M396,304.9h-39.6v-61.5H396c-17,0-21.7,13.8-21.7,30.8C374.3,291.2,379,304.9,396,304.9L396,304.9z"/>
						<path class="st4" d="M327.5,336.9c0,9.1-7.4,16.5-16.5,16.5c-0.3,0-0.7,0-1,0H54.2c8.7-0.5,9.4-7.7,9.4-16.5
							s-1.2-16.5-10.4-16.5H311C320.1,320.3,327.5,327.8,327.5,336.9L327.5,336.9z"/>
						<path class="st4" d="M420.2,160.5c0,36.5-29.6,66.1-66.1,66.1H196.7c0,0,14.8-42,14.8-66.1s-14.8-66.1-14.8-66.1h157.4
							C390.6,94.4,420.2,124,420.2,160.5z"/>
					</g>
				</g>
			</g>
		</g>
	</g>
	<path class="st9" d="M100.3,116.7c-41.8,69.5-41.9,92.6,18.1,146.1c1.4,1.2,1.8,3.3,0.9,4.9c-4.5,8.8-18.2,30.8-18.5,42.4
		c-0.1,2.7,2,4.5,4.6,4.2c10.8-1.3,19-1.8,9.9-12.3c-1.2-1.4-1.3-3.4-0.3-4.9c5.6-8.5,22.9-29.6,27.4-37.2c0.7-1.2,0.8-2.6,0.2-3.9
		c-32.6-74.8-19.2-37.8,34.9-57.5c2.7-1,5.6,1.1,5.5,4c-0.4,8.2-1,16.2-1.3,21.9c-0.1,1.6,0.8,3,2.1,3.8l8.6,4.6
		c4,2.2,8.7,2.7,13.2,1.6c4-1,7.8-2.2,8-5.3c0.1-1.9-1.4-3.5-3.2-3.9c-3.2-0.7-9.2-2.1-12.9-2.9c-1.9-0.4-3.2-2.2-3.2-4.1
		c0.5-10.6,3.2-18.3,5.6-30.6c1.3-6.9-2.2-28.5-9-30.3c-18.3-4.8-40.9,12.8-54.3-0.6c-0.9-0.9-6.6-15-6.9-21.9
		c-0.3-6.9,24-97.3,49.8-101.3c7.2-1.1,10.2-3.2,8.3-5.6c-0.9-1.2-11.3-5.7-12.6-5.5c-8,1-6.3,9.6-16.6,3.4c-2-1.2-4.6-0.3-5.4,1.9
		c-0.6,1.8-0.6,1.8,0.1,3.9c1.3,3.7,0.9,7.1-0.5,9.4c-15.6,25.7-37.6,55.8-52.6,75.5C100.5,116.4,100.4,116.5,100.3,116.7
		L100.3,116.7z"/>
</g>
</svg>
