<?xml version="1.0" encoding="utf-8"?>
<!-- Generator: Adobe Illustrator 26.1.0, SVG Export Plug-In . SVG Version: 6.00 Build 0)  -->
<svg version="1.1" id="Calque_1" xmlns="http://www.w3.org/2000/svg" xmlns:xlink="http://www.w3.org/1999/xlink" x="0px" y="0px"
	 viewBox="0 0 786.4 193" style="enable-background:new 0 0 786.4 193;" xml:space="preserve">
<style type="text/css">
	.st0{fill:#1D1D1B;}
	.st1{fill:#0868AE;}
</style>
<path class="st0" d="M157.9,53.1c0,7.2-1.1,13.3-3.2,18.2s-4.9,9-8.5,12.2s-7.5,5.7-12.1,7.5c-4.5,1.8-9.2,3.1-14,3.9
	c6,2.2,10.9,5,14.7,8.3c3.8,3.4,6.8,6.9,8.9,10.5c2.2,3.6,3.6,7.2,4.4,10.7c0.8,3.5,1.2,6.4,1.2,8.8c0,5.9-0.9,11-2.6,15.4
	c-1.7,4.4-4,8.1-7,11.3c-2.9,3.1-6.4,5.7-10.3,7.8c-3.9,2-8.1,3.7-12.5,4.9s-9,2-13.6,2.5s-9.2,0.7-13.6,0.7c-1.5,0-3,0-4.5-0.1
	s-3.4-0.1-5.7-0.2c-2.3-0.1-5.1-0.3-8.5-0.5s-7.8-0.5-13.1-0.9s-11.8-0.9-19.4-1.5c-7.6-0.6-16.7-1.3-27.2-2L40,152.9l8.3-124.1
	L17.5,8.8C32,9,44.7,9.1,55.6,9.3c10.9,0.2,20.1,0.3,27.6,0.5c8.8,0.2,16.3,0.3,22.5,0.5c6.1,0,12.3,0.9,18.5,2.8s11.8,4.6,16.8,8.2
	s9,8.1,12.2,13.4S157.9,46.1,157.9,53.1L157.9,53.1z M126.9,53.8c0-0.7-0.1-1.9-0.3-3.7c-0.2-1.8-0.7-3.8-1.6-6
	c-0.9-2.2-2.3-4.6-4.2-7c-1.9-2.5-4.5-4.7-7.9-6.8c-3.4-2-7.6-3.7-12.7-5.1S88.9,23.1,81.5,23c-3.9,0-7.8,0.2-11.5,0.7v64.9
	c2,0.2,4.1,0.2,6.1,0.2h5.4c7.5,0,13.8-0.7,19-2.2c5.2-1.5,9.4-3.4,12.8-5.8s6-4.9,7.8-7.7s3.2-5.5,4-8.1c0.9-2.6,1.4-4.9,1.5-7
	C126.9,56.1,127,54.6,126.9,53.8L126.9,53.8z M82.2,101.5h-5.9c-2.2,0-4.3,0.1-6.3,0.2v56.5c3.5,0.6,6.8,1.1,9.7,1.3
	c3,0.2,6,0.4,8.9,0.4c4,0,8-0.5,11.9-1.4c4-0.9,7.5-2.5,10.7-4.7s5.7-5.2,7.7-9s2.9-8.5,2.9-14.1c0-2.9-0.7-6.1-2-9.5
	c-1.3-3.4-3.5-6.6-6.6-9.5c-3-2.9-7.1-5.3-12.2-7.3S89.7,101.4,82.2,101.5L82.2,101.5z"/>
<path class="st0" d="M167.6,174.9l18.4-14.4l-4-81l-21.7-14.2l50.5-8.6l-9,94.1l25.2,15.7L167.6,174.9L167.6,174.9z"/>
<path class="st0" d="M289.8,176.5c-4.2,0-8.1-0.7-11.7-2s-6.8-3.1-9.6-5.4c-2.8-2.3-5.3-4.9-7.3-7.9c-2.1-3-3.7-6.2-4.9-9.7
	l-11.9,27.4l-4.6-140.1l-29.5-11.5l62.2-7c-1.6,11.4-2.9,21.6-4,30.6c-1.1,9-2,17-2.7,24c4.2-6.3,9.4-11.5,15.4-15.4
	c6.1-3.9,13-5.9,20.8-5.9c5.8,0,10.8,0.7,15.1,2.1s8,3.3,11.1,5.8c3.1,2.5,5.6,5.4,7.6,8.7s3.6,6.9,4.8,10.6c1.2,3.8,2,7.6,2.5,11.6
	c0.5,4,0.7,7.9,0.7,11.9c0,10.6-1.2,20.3-3.5,29.2c-2.3,8.9-5.7,16.5-10.2,23s-10.1,11.4-16.9,15S298.7,176.5,289.8,176.5
	L289.8,176.5z M291.5,71.4c-3.3,0-6.4,0.8-9.3,2.5c-2.9,1.6-5.5,3.9-7.9,6.7c-2.4,2.8-4.5,6.1-6.3,9.8c-1.8,3.7-3.4,7.6-4.6,11.8
	c-0.2,2.3-0.3,4.2-0.3,5.8c-0.1,1.6-0.1,3-0.1,4c-0.1,1.3-0.1,2.4,0,3.3c0,9.1,0.7,16.6,2,22.5c1.3,6,3.1,10.7,5.4,14.3
	s4.9,6.1,7.9,7.5c3,1.5,6.2,2.2,9.5,2.2s6.7-1.2,10.1-3.8c3.4-2.5,6.6-6.1,9.5-10.8c2.9-4.7,5.2-10.4,7-17
	c1.8-6.7,2.8-14.2,2.8-22.5c0-5.9-0.7-11.1-2.1-15.6c-1.4-4.5-3.3-8.3-5.7-11.4c-2.4-3-5.1-5.4-8.2-6.9
	C298,72.2,294.8,71.4,291.5,71.4L291.5,71.4z"/>
<path class="st0" d="M384.5,159.1l23.5,9.4l-58.8,5.8l21.1-16.5l-3.6-126.8l-27.1-11.7l59.4-7.9L384.5,159.1L384.5,159.1z"/>
<path class="st0" d="M413.6,114.8c0-8.8,1.4-16.9,4.2-24.4c2.8-7.5,6.7-14,11.6-19.4c5-5.5,10.9-9.8,17.7-12.9
	c6.8-3.1,14.3-4.6,22.5-4.6s15.1,1.5,21.7,4.4s12.3,7.1,17.1,12.4c4.8,5.3,8.7,11.7,11.6,19.1c2.9,7.4,4.6,15.6,5.2,24.6
	c0.6,9.6-0.4,18.3-3,26.1s-6.3,14.4-11.2,19.8c-4.9,5.4-10.8,9.6-17.7,12.6s-14.3,4.5-22.2,4.5s-15-1.4-21.9-4.2
	c-6.9-2.8-13-6.8-18.3-12.1c-5.3-5.3-9.5-11.8-12.6-19.5C415.2,133.6,413.6,124.8,413.6,114.8L413.6,114.8z M442.5,116.8
	c0,6.9,1,13.1,2.9,18.7c2,5.6,4.6,10.3,7.9,14.1c3.3,3.9,7.1,6.9,11.4,9c4.3,2.1,8.8,3.2,13.6,3.2s9.2-1,13.4-3.1
	c4.2-2.1,7.8-5,10.8-8.8c3.1-3.8,5.4-8.4,7.2-13.7c1.7-5.3,2.6-11.2,2.6-17.7s-0.9-12.5-2.6-18.1s-4.1-10.6-7.2-14.9
	c-3.1-4.2-6.8-7.5-11-10c-4.2-2.4-8.8-3.6-13.8-3.6c-4.5,0-8.8,1-13,3c-4.2,2-7.9,5-11.2,8.9c-3.3,3.9-5.9,8.6-7.9,14.1
	C443.5,103.5,442.5,109.8,442.5,116.8L442.5,116.8z"/>
<path class="st0" d="M538.6,114.8c0-8.8,1.4-16.9,4.2-24.4c2.8-7.5,6.7-14,11.6-19.4c5-5.5,10.9-9.8,17.7-12.9
	c6.8-3.1,14.3-4.6,22.5-4.6s15.1,1.5,21.7,4.4s12.3,7.1,17.1,12.4c4.8,5.3,8.7,11.7,11.6,19.1c2.9,7.4,4.6,15.6,5.2,24.6
	c0.6,9.6-0.4,18.3-3,26.1s-6.3,14.4-11.2,19.8c-4.9,5.4-10.8,9.6-17.7,12.6c-6.8,3-14.3,4.5-22.2,4.5s-15-1.4-21.9-4.2
	c-6.9-2.8-13-6.8-18.3-12.1s-9.5-11.8-12.6-19.5C540.2,133.6,538.6,124.8,538.6,114.8L538.6,114.8z M567.5,116.8
	c0,6.9,1,13.1,2.9,18.7c1.9,5.6,4.6,10.3,7.9,14.1c3.3,3.9,7.1,6.9,11.4,9c4.3,2.1,8.8,3.2,13.6,3.2s9.2-1,13.4-3.1
	c4.2-2.1,7.8-5,10.8-8.8c3.1-3.8,5.4-8.4,7.2-13.7c1.7-5.3,2.6-11.2,2.6-17.7s-0.9-12.5-2.6-18.1s-4.1-10.6-7.2-14.9s-6.8-7.5-11-10
	c-4.2-2.4-8.8-3.6-13.8-3.6c-4.5,0-8.8,1-13,3c-4.2,2-7.9,5-11.2,8.9c-3.3,3.9-5.9,8.6-7.9,14.1
	C568.5,103.5,567.5,109.8,567.5,116.8L567.5,116.8z"/>
<path class="st0" d="M776.4,69.4l-24.3,8.5l-50,47.5c3.1,3.8,6.1,7.1,9,9.9c2.9,2.7,5.6,5.1,8.2,7c2.6,2,5,3.5,7.2,4.7
	s4.3,2.1,6.2,2.7c4.3,1.5,8.2,2,11.7,1.4c2.5-0.2,5.2-0.9,8.1-2.4c2.5-1.2,5.4-3,8.6-5.6c3.2-2.6,6.7-6.3,10.4-11.1
	c-1.4,8.7-3.5,15.9-6.2,21.7c-2.7,5.8-5.5,10.3-8.5,13.7c-3,3.4-5.8,5.8-8.5,7.2s-4.8,2.1-6.2,2.1c-4.1-0.6-8.6-2.5-13.5-5.5
	c-2.1-1.2-4.4-2.9-7-4.8c-2.5-2-5.2-4.3-8.1-7c-2.9-2.7-5.9-6-9.1-9.7c-3.2-3.7-6.5-8-9.9-12.9l0.2,22.5l15.6,13h-58.7l18.1-14.7
	l8.3-130.8l-26.2-13L693.7,7l0.8,106.2l32.9-42l-13.5-14.9L776.4,69.4L776.4,69.4z"/>
<path class="st1" d="M206.8,30.9c0,2-0.4,3.9-1.2,5.7s-1.9,3.3-3.3,4.7c-1.4,1.4-3,2.4-4.8,3.2s-3.7,1.1-5.7,1.1
	c-2.1,0-4.1-0.4-5.9-1.1c-1.8-0.8-3.4-1.8-4.7-3.2c-1.3-1.4-2.4-2.9-3.2-4.7c-0.8-1.8-1.2-3.7-1.2-5.7s0.4-4,1.2-5.8
	c0.8-1.8,1.9-3.3,3.2-4.7s2.9-2.4,4.7-3.2s3.8-1.1,5.9-1.1c2,0,3.9,0.4,5.7,1.1c1.8,0.8,3.4,1.8,4.8,3.2c1.4,1.3,2.5,2.9,3.3,4.7
	C206.4,26.9,206.8,28.8,206.8,30.9z"/>
</svg>
