<?xml version="1.0" encoding="UTF-8"?>
<svg id="Calque_1" data-name="Calque 1" xmlns="http://www.w3.org/2000/svg" xmlns:xlink="http://www.w3.org/1999/xlink" viewBox="0 0 566.93 660.19">
  <defs>
    <style>
      .cls-1 {
        fill: #575756;
      }

      .cls-2 {
        fill: #f07f4e;
      }

      .cls-3 {
        fill: #dadada;
      }

      .cls-4 {
        fill: #0868ae;
      }

      .cls-5 {
        fill: #3c3c3b;
      }

      .cls-6 {
        fill: #e94a34;
      }

      .cls-7 {
        clip-path: url(#clippath);
      }

      .cls-8 {
        fill: none;
      }

      .cls-9 {
        fill: #1b9690;
      }

      .cls-10 {
        fill: #1d1d1b;
      }
    </style>
    <clipPath id="clippath">
      <circle class="cls-8" cx="283.46" cy="283.46" r="168.45"/>
    </clipPath>
  </defs>
  <g>
    <circle class="cls-4" cx="283.46" cy="283.46" r="168.45"/>
    <circle class="cls-1" cx="222.29" cy="195.22" r="29.65"/>
    <g class="cls-7">
      <g>
        <rect class="cls-2" x="494.92" y="168.56" width="20.38" height="20.38"/>
        <path class="cls-2" d="M517.29,176.08c0,14.22-11.53,25.76-25.76,25.76h-205.39v-8.43h186.34c-4.17-4.57-6.71-10.66-6.71-17.33s2.55-12.77,6.72-17.34h-186.36v-8.42h205.39c14.22,0,25.76,11.52,25.76,25.76Z"/>
        <path class="cls-3" d="M508.87,176.08c0,9.57-7.76,17.33-17.33,17.33h-205.4c9.57,0,9.06-7.76,9.06-17.33s.51-17.33-9.06-17.33h205.4c9.57,0,17.33,7.76,17.33,17.33Z"/>
        <path class="cls-4" d="M542.79,275.51c0,40.69-32.99,73.67-73.68,73.67h-157.36v-7.54h157.37c36.51,0,66.12-29.61,66.12-66.14s-29.61-66.12-66.12-66.12h-157.37v-7.54h157.36c40.69,0,73.68,32.98,73.68,73.67Z"/>
        <rect class="cls-4" x="399.37" y="201.84" width="3.96" height="7.51"/>
        <path class="cls-9" d="M284.67,349.18h190.43v9.2h-167.66c8.81,7.35,14.44,18.4,14.44,30.77s-5.63,23.42-14.42,30.76h-.01s167.65,.01,167.65,.01v9.2h-190.43v-.11c-.91,.08-1.83,.11-2.76,.11-22.07,0-39.96-17.89-39.96-39.97s17.89-39.97,39.96-39.97c.93,0,1.85,.03,2.76,.1v-.1Z"/>
        <rect class="cls-9" x="471.46" y="349.18" width="39.6" height="9.2"/>
        <rect class="cls-9" x="471.46" y="419.92" width="39.6" height="9.2"/>
        <path class="cls-6" d="M448.69,451.92c0,12.1-9.43,22-21.33,22.76-.49,.03-.98,.05-1.48,.05-6.09,0-11.61-2.38-15.7-6.27-4.38-4.15-7.11-10.03-7.11-16.54s2.73-12.39,7.11-16.54H168.28v-6.27H426.08c12.5,.1,22.62,10.27,22.62,22.81Z"/>
        <path class="cls-10" d="M425.88,474.73H169.56v-6.27h240.62c4.09,3.89,9.61,6.27,15.7,6.27Z"/>
        <path class="cls-10" d="M427.37,441.58v.05h-1.48c.5,0,.99-.02,1.48-.05Z"/>
        <path class="cls-3" d="M475.11,358.39v61.52h-190.43c-16.99,0-30.76-13.77-30.76-30.76s13.77-30.76,30.76-30.76h190.43Z"/>
        <path class="cls-3" d="M511.06,419.91h-39.6v-61.52h39.6c-16.98,0-21.73,13.77-21.73,30.76s4.75,30.76,21.73,30.76Z"/>
        <path class="cls-3" d="M442.62,451.92c0,9.14-7.42,16.55-16.55,16.55-.34,0-.69-.01-1.02-.04H169.3c8.66-.52,9.37-7.71,9.37-16.51s-1.25-16.55-10.39-16.55H426.08c9.13,0,16.55,7.41,16.55,16.55Z"/>
        <path class="cls-3" d="M535.25,275.5c0,36.53-29.61,66.14-66.12,66.14h-157.37s14.8-41.96,14.8-66.14-14.8-66.12-14.8-66.12h157.37c36.51,0,66.12,29.61,66.12,66.12Z"/>
      </g>
    </g>
    <path class="cls-5" d="M215.43,231.72c-41.83,69.51-41.95,92.56,18.09,146.06,1.39,1.24,1.78,3.26,.92,4.91-4.52,8.75-18.17,30.84-18.52,42.42-.08,2.66,2,4.55,4.64,4.22,10.8-1.34,18.97-1.79,9.95-12.31-1.17-1.37-1.29-3.36-.3-4.87,5.56-8.45,22.91-29.63,27.45-37.18,.7-1.17,.75-2.61,.2-3.86-32.61-74.75-19.24-37.81,34.92-57.52,2.74-1,5.62,1.12,5.49,4.03-.37,8.17-1.01,16.17-1.28,21.9-.07,1.57,.76,3.04,2.15,3.78l8.62,4.63c4.04,2.17,8.74,2.73,13.18,1.59,3.95-1.01,7.8-2.16,7.95-5.33,.09-1.88-1.36-3.49-3.19-3.9-3.23-.73-9.18-2.08-12.9-2.92-1.92-.43-3.25-2.16-3.17-4.13,.46-10.61,3.22-18.33,5.59-30.65,1.32-6.86-2.21-28.47-8.97-30.26-18.31-4.83-40.91,12.76-54.33-.61-.92-.92-6.61-15.04-6.89-21.95-.28-6.91,24.02-97.27,49.78-101.29,7.24-1.13,10.22-3.21,8.3-5.65-.93-1.17-11.34-5.69-12.63-5.53-8.05,1.01-6.27,9.59-16.56,3.37-2.01-1.21-4.62-.32-5.4,1.89-.61,1.75-.58,1.83,.14,3.88,1.31,3.7,.94,7.07-.47,9.38-15.58,25.7-37.62,55.83-52.56,75.52-.09,.11-.17,.23-.24,.35Z"/>
  </g>
  <path class="cls-10" d="M165.44,514.43c0,3.6-.53,6.63-1.58,9.1-1.06,2.46-2.46,4.5-4.23,6.1-1.76,1.6-3.78,2.86-6.04,3.76-2.27,.9-4.6,1.55-6.98,1.94,3.01,1.1,5.47,2.49,7.37,4.17,1.9,1.68,3.38,3.43,4.46,5.25,1.08,1.82,1.81,3.6,2.2,5.34,.39,1.74,.59,3.2,.59,4.37,0,2.93-.43,5.5-1.29,7.69-.86,2.19-2.02,4.07-3.49,5.63-1.47,1.57-3.18,2.86-5.14,3.87-1.96,1.02-4.04,1.83-6.25,2.44-2.21,.61-4.48,1.03-6.81,1.26-2.33,.23-4.59,.35-6.78,.35-.74,0-1.5-.01-2.26-.03-.76-.02-1.71-.06-2.85-.12-1.14-.06-2.55-.15-4.25-.26-1.7-.12-3.88-.27-6.54-.47-2.66-.2-5.89-.44-9.68-.73-3.8-.29-8.33-.64-13.62-1.03l14.2-8.74,4.17-62.03-15.38-9.98c7.24,.08,13.59,.16,19.04,.23,5.46,.08,10.07,.16,13.82,.23,4.38,.08,8.14,.16,11.27,.23,3.05,0,6.13,.46,9.24,1.38,3.11,.92,5.91,2.28,8.39,4.08,2.48,1.8,4.51,4.04,6.07,6.72,1.56,2.68,2.35,5.76,2.35,9.24Zm-15.49,.35c0-.35-.05-.97-.15-1.85-.1-.88-.37-1.88-.82-2.99-.45-1.12-1.14-2.29-2.08-3.52-.94-1.23-2.25-2.36-3.93-3.37-1.68-1.02-3.81-1.87-6.37-2.55-2.56-.68-5.68-1.05-9.36-1.09-1.96,0-3.87,.12-5.75,.35v32.46c1.02,.08,2.03,.12,3.05,.12h2.7c3.76,0,6.93-.37,9.51-1.12,2.58-.74,4.71-1.7,6.4-2.88,1.68-1.17,2.98-2.46,3.9-3.84,.92-1.39,1.59-2.74,2.02-4.05,.43-1.31,.68-2.47,.76-3.49,.08-1.02,.12-1.74,.12-2.17Zm-22.36,23.83h-2.93c-1.1,0-2.15,.04-3.17,.12v28.23c1.76,.31,3.38,.53,4.87,.65,1.49,.12,2.97,.18,4.46,.18,2,0,3.98-.22,5.96-.67,1.98-.45,3.76-1.23,5.34-2.35,1.58-1.12,2.87-2.61,3.84-4.49,.98-1.88,1.47-4.23,1.47-7.04,0-1.45-.33-3.03-1-4.75-.67-1.72-1.76-3.31-3.29-4.75-1.53-1.45-3.56-2.66-6.1-3.64-2.54-.98-5.69-1.47-9.45-1.47Z"/>
  <path class="cls-10" d="M170.25,575.35l9.21-7.22-2-40.5-10.86-7.1,25.24-4.28-4.52,47.07,12.62,7.86-29.7,4.17Z"/>
  <path class="cls-10" d="M231.35,576.11c-2.11,0-4.07-.33-5.87-1-1.8-.66-3.4-1.56-4.81-2.7-1.41-1.13-2.63-2.45-3.67-3.96-1.04-1.51-1.85-3.12-2.44-4.84l-5.93,13.67-2.29-70.07-14.73-5.75,31.11-3.52c-.78,5.71-1.45,10.81-2,15.29-.55,4.48-1,8.48-1.35,12,2.11-3.17,4.69-5.74,7.72-7.72,3.03-1.98,6.5-2.96,10.42-2.96,2.9,0,5.42,.35,7.57,1.06,2.15,.7,4,1.67,5.55,2.9,1.54,1.23,2.82,2.68,3.81,4.34,1,1.66,1.79,3.43,2.38,5.31,.59,1.88,1,3.81,1.23,5.81,.23,2,.35,3.97,.35,5.93,0,5.28-.58,10.14-1.73,14.58-1.15,4.44-2.86,8.27-5.11,11.47-2.25,3.21-5.07,5.7-8.45,7.48-3.38,1.78-7.31,2.67-11.77,2.67Zm.88-52.53c-1.64,0-3.19,.41-4.64,1.23-1.45,.82-2.77,1.94-3.96,3.35-1.19,1.41-2.25,3.04-3.17,4.9-.92,1.86-1.69,3.82-2.32,5.9-.08,1.14-.14,2.1-.18,2.91-.04,.8-.06,1.48-.06,2.02-.04,.67-.04,1.21,0,1.64,0,4.54,.33,8.3,1,11.27,.67,2.97,1.56,5.35,2.7,7.13,1.13,1.78,2.46,3.03,3.96,3.76,1.51,.72,3.08,1.09,4.72,1.09s3.33-.63,5.05-1.88c1.72-1.25,3.3-3.05,4.72-5.4,1.43-2.35,2.6-5.18,3.52-8.51,.92-3.33,1.38-7.08,1.38-11.27,0-2.93-.35-5.54-1.06-7.81-.7-2.27-1.65-4.17-2.85-5.69-1.19-1.53-2.55-2.68-4.08-3.46-1.53-.78-3.11-1.17-4.75-1.17Z"/>
  <path class="cls-10" d="M278.71,567.42l11.74,4.69-29.4,2.88,10.56-8.28-1.82-63.38-13.56-5.87,29.7-3.93-7.22,73.89Z"/>
  <path class="cls-10" d="M293.27,545.3c0-4.38,.69-8.44,2.08-12.18,1.39-3.74,3.32-6.97,5.81-9.71,2.48-2.74,5.44-4.88,8.86-6.43,3.42-1.54,7.17-2.32,11.24-2.32s7.57,.73,10.86,2.2,6.14,3.53,8.57,6.19c2.43,2.66,4.36,5.85,5.81,9.57,1.45,3.72,2.31,7.83,2.58,12.32,.27,4.81-.23,9.17-1.5,13.06-1.27,3.89-3.14,7.2-5.61,9.92-2.46,2.72-5.41,4.82-8.83,6.31-3.42,1.49-7.13,2.23-11.12,2.23s-7.48-.7-10.95-2.08c-3.46-1.39-6.51-3.41-9.16-6.07-2.64-2.66-4.74-5.92-6.31-9.77-1.57-3.85-2.35-8.27-2.35-13.23Zm14.44,1c0,3.44,.49,6.55,1.47,9.33,.98,2.78,2.29,5.14,3.93,7.07,1.64,1.94,3.54,3.43,5.69,4.49,2.15,1.06,4.42,1.58,6.81,1.58s4.62-.52,6.69-1.56c2.07-1.04,3.87-2.5,5.4-4.4,1.53-1.9,2.72-4.18,3.58-6.84,.86-2.66,1.29-5.61,1.29-8.86s-.43-6.23-1.29-9.07c-.86-2.84-2.06-5.31-3.61-7.42-1.55-2.11-3.37-3.78-5.49-4.99-2.11-1.21-4.42-1.82-6.93-1.82-2.23,0-4.39,.51-6.49,1.53-2.09,1.02-3.96,2.49-5.6,4.43-1.64,1.94-2.96,4.29-3.96,7.07-1,2.78-1.5,5.93-1.5,9.45Z"/>
  <path class="cls-10" d="M355.77,545.3c0-4.38,.69-8.44,2.08-12.18,1.39-3.74,3.32-6.97,5.81-9.71,2.48-2.74,5.44-4.88,8.86-6.43,3.42-1.54,7.17-2.32,11.24-2.32s7.57,.73,10.86,2.2,6.14,3.53,8.57,6.19c2.43,2.66,4.36,5.85,5.81,9.57,1.45,3.72,2.31,7.83,2.58,12.32,.27,4.81-.23,9.17-1.5,13.06-1.27,3.89-3.14,7.2-5.61,9.92-2.46,2.72-5.41,4.82-8.83,6.31-3.42,1.49-7.13,2.23-11.12,2.23s-7.48-.7-10.95-2.08c-3.46-1.39-6.51-3.41-9.16-6.07-2.64-2.66-4.74-5.92-6.31-9.77-1.57-3.85-2.35-8.27-2.35-13.23Zm14.44,1c0,3.44,.49,6.55,1.47,9.33,.98,2.78,2.29,5.14,3.93,7.07,1.64,1.94,3.54,3.43,5.69,4.49,2.15,1.06,4.42,1.58,6.81,1.58s4.62-.52,6.69-1.56c2.07-1.04,3.87-2.5,5.4-4.4,1.53-1.9,2.72-4.18,3.58-6.84,.86-2.66,1.29-5.61,1.29-8.86s-.43-6.23-1.29-9.07c-.86-2.84-2.06-5.31-3.61-7.42-1.55-2.11-3.37-3.78-5.49-4.99-2.11-1.21-4.42-1.82-6.93-1.82-2.23,0-4.39,.51-6.49,1.53-2.09,1.02-3.96,2.49-5.6,4.43-1.64,1.94-2.96,4.29-3.96,7.07-1,2.78-1.5,5.93-1.5,9.45Z"/>
  <path class="cls-10" d="M474.67,522.58l-12.15,4.23-25,23.77c1.56,1.92,3.07,3.56,4.52,4.93,1.45,1.37,2.82,2.54,4.11,3.52,1.29,.98,2.49,1.76,3.61,2.35s2.14,1.04,3.08,1.35c2.15,.74,4.11,.98,5.87,.7,1.25-.08,2.6-.47,4.05-1.17,1.25-.59,2.69-1.53,4.31-2.82,1.62-1.29,3.35-3.15,5.19-5.58-.7,4.34-1.73,7.95-3.08,10.83-1.35,2.88-2.77,5.16-4.25,6.87-1.49,1.7-2.9,2.91-4.25,3.61-1.35,.7-2.38,1.06-3.08,1.06-2.03-.31-4.28-1.23-6.75-2.76-1.06-.63-2.22-1.43-3.49-2.41-1.27-.98-2.62-2.15-4.05-3.52-1.43-1.37-2.94-2.98-4.55-4.84-1.6-1.86-3.25-4-4.93-6.43l.12,11.27,7.81,6.51h-29.34l9.04-7.34,4.17-65.38-13.09-6.51,20.78-3.46,.41,53.11,16.43-21.01-6.75-7.45,31.28,6.57Z"/>
  <path class="cls-4" d="M189.86,503.3c0,1-.2,1.95-.6,2.83-.4,.89-.95,1.67-1.65,2.35-.7,.68-1.5,1.22-2.4,1.6-.9,.38-1.85,.58-2.85,.58-1.07,0-2.06-.19-2.97-.58-.92-.38-1.71-.92-2.37-1.6-.67-.68-1.2-1.47-1.6-2.35-.4-.89-.6-1.83-.6-2.83s.2-2,.6-2.88c.4-.88,.93-1.66,1.6-2.33s1.46-1.19,2.37-1.58c.91-.38,1.9-.58,2.97-.58,1,0,1.95,.19,2.85,.58,.9,.38,1.7,.91,2.4,1.58,.7,.67,1.25,1.45,1.65,2.33,.4,.89,.6,1.85,.6,2.88Z"/>
</svg>