<?xml version="1.0" encoding="UTF-8"?>
<svg id="Calque_1" data-name="Calque 1" xmlns="http://www.w3.org/2000/svg" xmlns:xlink="http://www.w3.org/1999/xlink" viewBox="0 0 566.93 566.93">
  <defs>
    <style>
      .cls-1 {
        fill: #575756;
      }

      .cls-2 {
        fill: #f07f4e;
      }

      .cls-3 {
        fill: #f9b017;
      }

      .cls-4 {
        fill: #dadada;
      }

      .cls-5 {
        fill: #0868ae;
      }

      .cls-6 {
        fill: #3c3c3b;
      }

      .cls-7 {
        fill: #e94a34;
      }

      .cls-8 {
        clip-path: url(#clippath);
      }

      .cls-9 {
        fill: none;
      }

      .cls-10 {
        fill: #1b9690;
      }

      .cls-11 {
        fill: #1d1d1b;
      }
    </style>
    <clipPath id="clippath">
      <circle class="cls-9" cx="283.46" cy="283.46" r="168.45"/>
    </clipPath>
  </defs>
  <circle class="cls-3" cx="283.46" cy="283.46" r="168.45"/>
  <circle class="cls-1" cx="222.29" cy="195.22" r="29.65"/>
  <g class="cls-8">
    <g>
      <rect class="cls-2" x="494.92" y="168.56" width="20.38" height="20.38"/>
      <path class="cls-2" d="M517.29,176.08c0,14.22-11.53,25.76-25.76,25.76h-205.39v-8.43h186.34c-4.17-4.57-6.71-10.66-6.71-17.33s2.55-12.77,6.72-17.34h-186.36v-8.42h205.39c14.22,0,25.76,11.52,25.76,25.76Z"/>
      <path class="cls-4" d="M508.87,176.08c0,9.57-7.76,17.33-17.33,17.33h-205.4c9.57,0,9.06-7.76,9.06-17.33s.51-17.33-9.06-17.33h205.4c9.57,0,17.33,7.76,17.33,17.33Z"/>
      <path class="cls-5" d="M542.79,275.51c0,40.69-32.99,73.67-73.68,73.67h-157.36v-7.54h157.37c36.51,0,66.12-29.61,66.12-66.14s-29.61-66.12-66.12-66.12h-157.37v-7.54h157.36c40.69,0,73.68,32.98,73.68,73.67Z"/>
      <rect class="cls-5" x="399.37" y="201.84" width="3.96" height="7.51"/>
      <path class="cls-10" d="M284.67,349.18h190.43v9.2h-167.66c8.81,7.35,14.44,18.4,14.44,30.77s-5.63,23.42-14.42,30.76h-.01s167.65,.01,167.65,.01v9.2h-190.43v-.11c-.91,.08-1.83,.11-2.76,.11-22.07,0-39.96-17.89-39.96-39.97s17.89-39.97,39.96-39.97c.93,0,1.85,.03,2.76,.1v-.1Z"/>
      <rect class="cls-10" x="471.46" y="349.18" width="39.6" height="9.2"/>
      <rect class="cls-10" x="471.46" y="419.92" width="39.6" height="9.2"/>
      <path class="cls-7" d="M448.69,451.92c0,12.1-9.43,22-21.33,22.76-.49,.03-.98,.05-1.48,.05-6.09,0-11.61-2.38-15.7-6.27-4.38-4.15-7.11-10.03-7.11-16.54s2.73-12.39,7.11-16.54H168.28v-6.27H426.08c12.5,.1,22.62,10.27,22.62,22.81Z"/>
      <path class="cls-11" d="M425.88,474.73H169.56v-6.27h240.62c4.09,3.89,9.61,6.27,15.7,6.27Z"/>
      <path class="cls-11" d="M427.37,441.58v.05h-1.48c.5,0,.99-.02,1.48-.05Z"/>
      <path class="cls-4" d="M475.11,358.39v61.52h-190.43c-16.99,0-30.76-13.77-30.76-30.76s13.77-30.76,30.76-30.76h190.43Z"/>
      <path class="cls-4" d="M511.06,419.91h-39.6v-61.52h39.6c-16.98,0-21.73,13.77-21.73,30.76s4.75,30.76,21.73,30.76Z"/>
      <path class="cls-4" d="M442.62,451.92c0,9.14-7.42,16.55-16.55,16.55-.34,0-.69-.01-1.02-.04H169.3c8.66-.52,9.37-7.71,9.37-16.51s-1.25-16.55-10.39-16.55H426.08c9.13,0,16.55,7.41,16.55,16.55Z"/>
      <path class="cls-4" d="M535.25,275.5c0,36.53-29.61,66.14-66.12,66.14h-157.37s14.8-41.96,14.8-66.14-14.8-66.12-14.8-66.12h157.37c36.51,0,66.12,29.61,66.12,66.12Z"/>
    </g>
  </g>
  <path class="cls-6" d="M215.43,231.72c-41.83,69.51-41.95,92.56,18.09,146.06,1.39,1.24,1.78,3.26,.92,4.91-4.52,8.75-18.17,30.84-18.52,42.42-.08,2.66,2,4.55,4.64,4.22,10.8-1.34,18.97-1.79,9.95-12.31-1.17-1.37-1.29-3.36-.3-4.87,5.56-8.45,22.91-29.63,27.45-37.18,.7-1.17,.75-2.61,.2-3.86-32.61-74.75-19.24-37.81,34.92-57.52,2.74-1,5.62,1.12,5.49,4.03-.37,8.17-1.01,16.17-1.28,21.9-.07,1.57,.76,3.04,2.15,3.78l8.62,4.63c4.04,2.17,8.74,2.73,13.18,1.59,3.95-1.01,7.8-2.16,7.95-5.33,.09-1.88-1.36-3.49-3.19-3.9-3.23-.73-9.18-2.08-12.9-2.92-1.92-.43-3.25-2.16-3.17-4.13,.46-10.61,3.22-18.33,5.59-30.65,1.32-6.86-2.21-28.47-8.97-30.26-18.31-4.83-40.91,12.76-54.33-.61-.92-.92-6.61-15.04-6.89-21.95-.28-6.91,24.02-97.27,49.78-101.29,7.24-1.13,10.22-3.21,8.3-5.65-.93-1.17-11.34-5.69-12.63-5.53-8.05,1.01-6.27,9.59-16.56,3.37-2.01-1.21-4.62-.32-5.4,1.89-.61,1.75-.58,1.83,.14,3.88,1.31,3.7,.94,7.07-.47,9.38-15.58,25.7-37.62,55.83-52.56,75.52-.09,.11-.17,.23-.24,.35Z"/>
</svg>