<?xml version="1.0" encoding="UTF-8"?>
<svg id="Calque_1" data-name="Calque 1" xmlns="http://www.w3.org/2000/svg" xmlns:xlink="http://www.w3.org/1999/xlink" viewBox="0 0 566.93 566.93">
  <defs>
    <style>
      .cls-1 {
        fill: #fff;
      }

      .cls-2 {
        fill: #f07f4e;
      }

      .cls-3 {
        fill: #f9b017;
      }

      .cls-4 {
        fill: #dadada;
      }

      .cls-5 {
        fill: #0868ae;
      }

      .cls-6 {
        fill: #e94a34;
      }

      .cls-7 {
        clip-path: url(#clippath);
      }

      .cls-8 {
        fill: none;
      }

      .cls-9 {
        fill: #1b9690;
      }

      .cls-10 {
        fill: #1d1d1b;
      }
    </style>
    <clipPath id="clippath">
      <circle class="cls-8" cx="283.46" cy="283.46" r="168.45"/>
    </clipPath>
  </defs>
  <circle class="cls-3" cx="283.46" cy="283.46" r="168.45"/>
  <circle class="cls-1" cx="222.29" cy="195.22" r="29.65"/>
  <g class="cls-7">
    <g>
      <rect class="cls-2" x="494.92" y="168.56" width="20.38" height="20.38"/>
      <path class="cls-2" d="M517.29,176.08c0,14.22-11.53,25.76-25.76,25.76h-205.39v-8.43h186.34c-4.17-4.57-6.71-10.66-6.71-17.33s2.55-12.77,6.72-17.34h-186.36v-8.42h205.39c14.22,0,25.76,11.52,25.76,25.76Z"/>
      <path class="cls-4" d="M508.87,176.08c0,9.57-7.76,17.33-17.33,17.33h-205.4c9.57,0,9.06-7.76,9.06-17.33s.51-17.33-9.06-17.33h205.4c9.57,0,17.33,7.76,17.33,17.33Z"/>
      <path class="cls-5" d="M542.79,275.51c0,40.69-32.99,73.67-73.68,73.67h-157.36v-7.54h157.37c36.51,0,66.12-29.61,66.12-66.14s-29.61-66.12-66.12-66.12h-157.37v-7.54h157.36c40.69,0,73.68,32.98,73.68,73.67Z"/>
      <rect class="cls-5" x="399.37" y="201.84" width="3.96" height="7.51"/>
      <path class="cls-9" d="M284.67,349.18h190.43v9.2h-167.66c8.81,7.35,14.44,18.4,14.44,30.77s-5.63,23.42-14.42,30.76h-.01s167.65,.01,167.65,.01v9.2h-190.43v-.11c-.91,.08-1.83,.11-2.76,.11-22.07,0-39.96-17.89-39.96-39.97s17.89-39.97,39.96-39.97c.93,0,1.85,.03,2.76,.1v-.1Z"/>
      <rect class="cls-9" x="471.46" y="349.18" width="39.6" height="9.2"/>
      <rect class="cls-9" x="471.46" y="419.92" width="39.6" height="9.2"/>
      <path class="cls-6" d="M448.69,451.92c0,12.1-9.43,22-21.33,22.76-.49,.03-.98,.05-1.48,.05-6.09,0-11.61-2.38-15.7-6.27-4.38-4.15-7.11-10.03-7.11-16.54s2.73-12.39,7.11-16.54H168.28v-6.27H426.08c12.5,.1,22.62,10.27,22.62,22.81Z"/>
      <path class="cls-10" d="M425.88,474.73H169.56v-6.27h240.62c4.09,3.89,9.61,6.27,15.7,6.27Z"/>
      <path class="cls-10" d="M427.37,441.58v.05h-1.48c.5,0,.99-.02,1.48-.05Z"/>
      <path class="cls-4" d="M475.11,358.39v61.52h-190.43c-16.99,0-30.76-13.77-30.76-30.76s13.77-30.76,30.76-30.76h190.43Z"/>
      <path class="cls-4" d="M511.06,419.91h-39.6v-61.52h39.6c-16.98,0-21.73,13.77-21.73,30.76s4.75,30.76,21.73,30.76Z"/>
      <path class="cls-4" d="M442.62,451.92c0,9.14-7.42,16.55-16.55,16.55-.34,0-.69-.01-1.02-.04H169.3c8.66-.52,9.37-7.71,9.37-16.51s-1.25-16.55-10.39-16.55H426.08c9.13,0,16.55,7.41,16.55,16.55Z"/>
      <path class="cls-4" d="M535.25,275.5c0,36.53-29.61,66.14-66.12,66.14h-157.37s14.8-41.96,14.8-66.14-14.8-66.12-14.8-66.12h157.37c36.51,0,66.12,29.61,66.12,66.12Z"/>
    </g>
  </g>
  <g>
    <path class="cls-1" d="M219.98,430.87c-1.55,0-2.97-.59-4-1.65-1.05-1.08-1.6-2.55-1.55-4.15,.29-9.76,9.34-26.09,15.33-36.9,1.35-2.43,2.51-4.53,3.36-6.16,.54-1.04,.29-2.31-.59-3.1-32.21-28.7-45.59-47.76-47.74-67.99-2.36-22.16,8.98-46.1,29.36-79.97,.1-.17,.21-.33,.33-.49,12.57-16.57,36.11-48.41,52.46-75.38,1.29-2.12,1.41-5.08,.33-8.1-.83-2.33-.89-2.75-.15-4.87,.72-2.06,2.68-3.44,4.87-3.44,.95,0,1.89,.26,2.72,.76,2.26,1.36,3.96,2.03,5.22,2.03s1.98-.64,3.29-1.88c1.54-1.46,3.46-3.27,7.1-3.72h.09s.17-.02,.17-.02c1.93,0,12.44,4.47,13.73,6.11,1.19,1.51,.93,2.83,.67,3.49-.85,2.17-4.1,3.67-9.92,4.57-23.98,3.74-48.82,92.02-48.51,99.74,.26,6.45,5.6,19.68,6.5,21,3.2,3.16,7.14,4.64,12.39,4.63,4.87,0,10.16-1.24,15.77-2.56,5.9-1.39,11.99-2.82,17.91-2.82,2.74,0,5.2,.3,7.53,.92,8.32,2.2,11.34,25.35,10.06,31.99-.78,4.07-1.6,7.58-2.38,10.97-1.55,6.69-2.89,12.47-3.19,19.46-.05,1.23,.79,2.32,2,2.6l12.89,2.92c2.64,.6,4.47,2.88,4.36,5.43-.2,4.45-5.33,5.76-9.08,6.71-1.61,.41-3.26,.62-4.92,.62-3.25,0-6.48-.81-9.34-2.34l-8.62-4.63c-1.88-1.01-3.03-3.04-2.94-5.17,.12-2.63,.32-5.78,.54-9.11,.25-3.92,.54-8.37,.74-12.79,.03-.71-.22-1.39-.71-1.9-.49-.52-1.18-.81-1.88-.81-.3,0-.6,.05-.89,.16-18.12,6.6-31.66,6.93-40.61,7.15-5.49,.13-9.46,.23-10.5,1.85-1.96,3.09,2.76,13.87,13.11,37.5,1.23,2.81,2.54,5.81,3.94,9.01,.75,1.72,.64,3.68-.29,5.23-2.48,4.13-8.69,12.21-14.69,20.03-5.04,6.56-10.25,13.34-12.79,17.2-.62,.95-.55,2.21,.19,3.07,3.66,4.27,4.87,7.24,3.94,9.65-1.35,3.49-6.68,4.13-13.42,4.95l-1.42,.17c-.26,.03-.52,.05-.77,.05Z"/>
    <path class="cls-3" d="M290.58,137.32c1.58,0,11.64,4.38,12.55,5.54,1.93,2.44-1.06,4.53-8.3,5.65-25.76,4.02-50.06,94.37-49.78,101.29,.28,6.91,5.97,21.04,6.89,21.95,3.85,3.83,8.46,5.12,13.5,5.12,10.31,0,22.44-5.38,33.68-5.38,2.43,0,4.83,.25,7.15,.87,6.76,1.78,10.29,23.39,8.97,30.26-2.37,12.32-5.14,20.04-5.59,30.65-.08,1.96,1.25,3.69,3.17,4.12,3.72,.84,9.67,2.19,12.9,2.92,1.83,.42,3.28,2.02,3.19,3.9-.15,3.17-4,4.32-7.95,5.33-1.5,.38-3.03,.57-4.55,.57-2.99,0-5.96-.73-8.63-2.17l-8.62-4.63c-1.38-.74-2.22-2.21-2.15-3.78,.26-5.74,.9-13.73,1.28-21.9,.11-2.42-1.85-4.28-4.08-4.28-.46,0-.93,.08-1.4,.25-54.17,19.71-67.53-17.23-34.92,57.52,.55,1.25,.5,2.69-.2,3.86-4.54,7.54-21.89,28.73-27.45,37.18-.99,1.51-.87,3.5,.3,4.87,9.02,10.52,.85,10.98-9.95,12.31-.2,.02-.4,.04-.59,.04-2.35,0-4.12-1.8-4.05-4.26,.34-11.57,13.99-33.66,18.52-42.42,.86-1.65,.47-3.67-.92-4.91-60.04-53.5-59.93-76.55-18.09-146.06,.07-.12,.15-.24,.24-.35,14.93-19.68,36.97-49.82,52.56-75.52,1.41-2.32,1.78-5.69,.47-9.38-.73-2.05-.76-2.13-.14-3.88,.54-1.54,1.97-2.44,3.46-2.44,.66,0,1.33,.17,1.94,.55,2.7,1.63,4.56,2.24,6,2.24,4.04,0,4.63-4.87,10.57-5.61,.02,0,.05,0,.08,0m0-3h0c-.17,0-.32,.01-.45,.03-4.12,.52-6.33,2.6-7.94,4.12-1.24,1.17-1.64,1.47-2.25,1.47-.66,0-1.97-.31-4.44-1.81-1.06-.64-2.27-.98-3.49-.98-2.83,0-5.36,1.79-6.29,4.44-.88,2.51-.77,3.3,.15,5.87,.91,2.56,.83,5.11-.2,6.82-16.32,26.92-39.82,58.71-52.38,75.26-.15,.2-.29,.41-.42,.62-20.55,34.14-31.97,58.32-29.57,80.9,2.19,20.64,15.72,39.97,48.24,68.95,.37,.33,.48,.86,.26,1.29-.83,1.61-1.99,3.7-3.33,6.12-6.06,10.94-15.22,27.46-15.52,37.58-.06,2.01,.64,3.87,1.97,5.24,1.32,1.36,3.12,2.1,5.08,2.1,.32,0,.64-.02,.96-.06l1.41-.17c7.24-.88,12.96-1.58,14.64-5.9,1.49-3.83-1.46-7.98-4.19-11.17-.3-.35-.33-.87-.07-1.26,2.51-3.82,7.7-10.58,12.72-17.11,6.03-7.85,12.26-15.96,14.79-20.16,1.19-1.97,1.33-4.44,.38-6.6-1.4-3.21-2.71-6.2-3.94-9.01-5.45-12.44-9.38-21.43-11.5-27.4-2.34-6.6-1.98-8.28-1.71-8.69,.6-.95,5.41-1.06,9.27-1.16,9.05-.22,22.73-.56,41.09-7.24,.13-.05,.25-.07,.38-.07,.29,0,.58,.13,.79,.35,.21,.22,.31,.49,.29,.8-.2,4.42-.49,8.86-.74,12.78-.21,3.33-.42,6.47-.54,9.12-.12,2.71,1.34,5.28,3.73,6.56l8.62,4.63c3.07,1.65,6.55,2.52,10.05,2.52,1.78,0,3.56-.22,5.29-.67,3.72-.95,9.95-2.54,10.21-8.1,.15-3.28-2.17-6.21-5.52-6.97l-7.48-1.69-5.42-1.23c-.5-.11-.85-.56-.83-1.07,.29-6.85,1.62-12.57,3.15-19.19,.79-3.4,1.6-6.92,2.39-11.02,.77-3.98,.15-11.5-1.49-18.3-2.2-9.12-5.45-14.31-9.67-15.42-2.46-.65-5.05-.96-7.92-.97-6.09,0-12.28,1.45-18.26,2.86-5.52,1.3-10.73,2.52-15.43,2.52s-8.32-1.3-11.2-4.08c-1.21-2.1-5.95-14.35-6.18-20.12-.07-2.9,5.73-26.76,14.99-50.68,11.13-28.74,22.88-46.06,32.26-47.52,6.48-1.01,10-2.76,11.08-5.51,.38-.96,.76-2.87-.89-4.97-1.6-2.03-12.44-6.68-14.91-6.68h0Z"/>
  </g>
</svg>